<mxfile host="app.diagrams.net" modified="2022-07-12T19:47:25.448Z" agent="5.0 (Windows)" etag="_6e7hOdv2Wo7axmwXVXU" version="20.0.4" type="github" pages="3">
  <diagram id="FIrea2oT4nY-FdcruvYv" name="Activity">
    <mxGraphModel dx="1730" dy="940" grid="1" gridSize="10" guides="1" tooltips="1" connect="1" arrows="1" fold="1" page="1" pageScale="1" pageWidth="1169" pageHeight="827" math="0" shadow="0">
      <root>
        <mxCell id="0" />
        <mxCell id="1" parent="0" />
        <mxCell id="qhrFOnnnxK_zlqW1Jflp-1" value="TerraManager" style="swimlane;childLayout=stackLayout;resizeParent=1;resizeParentMax=0;startSize=20;" parent="1" vertex="1">
          <mxGeometry x="30" width="1530" height="1590" as="geometry" />
        </mxCell>
        <mxCell id="qhrFOnnnxK_zlqW1Jflp-8" value="" style="edgeStyle=orthogonalEdgeStyle;html=1;verticalAlign=bottom;endArrow=open;endSize=8;strokeColor=#ff0000;rounded=0;entryX=0;entryY=0.25;entryDx=0;entryDy=0;" parent="qhrFOnnnxK_zlqW1Jflp-1" source="qhrFOnnnxK_zlqW1Jflp-7" target="qhrFOnnnxK_zlqW1Jflp-9" edge="1">
          <mxGeometry relative="1" as="geometry">
            <mxPoint x="235" y="240" as="targetPoint" />
          </mxGeometry>
        </mxCell>
        <mxCell id="qhrFOnnnxK_zlqW1Jflp-10" value="" style="edgeStyle=orthogonalEdgeStyle;html=1;verticalAlign=bottom;endArrow=open;endSize=8;strokeColor=#ff0000;rounded=0;entryX=0.5;entryY=0;entryDx=0;entryDy=0;" parent="qhrFOnnnxK_zlqW1Jflp-1" source="qhrFOnnnxK_zlqW1Jflp-9" target="qhrFOnnnxK_zlqW1Jflp-14" edge="1">
          <mxGeometry relative="1" as="geometry">
            <mxPoint x="615" y="450" as="targetPoint" />
            <Array as="points">
              <mxPoint x="670" y="420" />
              <mxPoint x="160" y="420" />
            </Array>
          </mxGeometry>
        </mxCell>
        <mxCell id="qhrFOnnnxK_zlqW1Jflp-18" value="" style="edgeStyle=orthogonalEdgeStyle;html=1;verticalAlign=bottom;endArrow=open;endSize=8;strokeColor=#ff0000;rounded=0;entryX=0.5;entryY=0;entryDx=0;entryDy=0;" parent="qhrFOnnnxK_zlqW1Jflp-1" source="qhrFOnnnxK_zlqW1Jflp-17" target="qhrFOnnnxK_zlqW1Jflp-42" edge="1">
          <mxGeometry relative="1" as="geometry">
            <mxPoint x="510" y="670" as="targetPoint" />
            <Array as="points">
              <mxPoint x="260" y="615" />
            </Array>
          </mxGeometry>
        </mxCell>
        <mxCell id="qhrFOnnnxK_zlqW1Jflp-16" value="Редактировать инфо о животном" style="edgeStyle=orthogonalEdgeStyle;html=1;align=left;verticalAlign=top;endArrow=open;endSize=8;strokeColor=#ff0000;rounded=0;exitX=1;exitY=0;exitDx=0;exitDy=0;entryX=0.75;entryY=0;entryDx=0;entryDy=0;" parent="qhrFOnnnxK_zlqW1Jflp-1" source="qhrFOnnnxK_zlqW1Jflp-14" target="qhrFOnnnxK_zlqW1Jflp-17" edge="1">
          <mxGeometry x="-0.8354" y="30" relative="1" as="geometry">
            <mxPoint x="690" y="505" as="targetPoint" />
            <Array as="points">
              <mxPoint x="208" y="470" />
              <mxPoint x="728" y="470" />
              <mxPoint x="728" y="560" />
            </Array>
            <mxPoint as="offset" />
          </mxGeometry>
        </mxCell>
        <mxCell id="qhrFOnnnxK_zlqW1Jflp-15" value="Добавить животное" style="edgeStyle=orthogonalEdgeStyle;html=1;align=left;verticalAlign=bottom;endArrow=open;endSize=8;strokeColor=#ff0000;rounded=0;exitX=1;exitY=0.5;exitDx=0;exitDy=0;entryX=0.5;entryY=0;entryDx=0;entryDy=0;" parent="qhrFOnnnxK_zlqW1Jflp-1" source="qhrFOnnnxK_zlqW1Jflp-14" target="qhrFOnnnxK_zlqW1Jflp-17" edge="1">
          <mxGeometry x="-1" y="7" relative="1" as="geometry">
            <mxPoint x="590" y="505" as="targetPoint" />
            <mxPoint x="250" y="504.5" as="sourcePoint" />
            <Array as="points">
              <mxPoint x="370" y="515" />
              <mxPoint x="370" y="480" />
              <mxPoint x="680" y="480" />
            </Array>
            <mxPoint x="-5" y="2" as="offset" />
          </mxGeometry>
        </mxCell>
        <mxCell id="qhrFOnnnxK_zlqW1Jflp-34" value="Удалить&lt;br&gt;инфо о животном" style="edgeStyle=orthogonalEdgeStyle;rounded=0;orthogonalLoop=1;jettySize=auto;html=1;exitX=1;exitY=1;exitDx=0;exitDy=0;endArrow=open;endFill=0;strokeColor=#FF3333;entryX=0.25;entryY=0;entryDx=0;entryDy=0;" parent="qhrFOnnnxK_zlqW1Jflp-1" source="qhrFOnnnxK_zlqW1Jflp-14" target="qhrFOnnnxK_zlqW1Jflp-17" edge="1">
          <mxGeometry x="-0.6111" y="20" relative="1" as="geometry">
            <mxPoint x="590" y="505" as="targetPoint" />
            <Array as="points">
              <mxPoint x="208" y="570" />
              <mxPoint x="360" y="570" />
              <mxPoint x="360" y="530" />
              <mxPoint x="633" y="530" />
              <mxPoint x="633" y="570" />
            </Array>
            <mxPoint as="offset" />
          </mxGeometry>
        </mxCell>
        <mxCell id="qhrFOnnnxK_zlqW1Jflp-44" value="" style="edgeStyle=orthogonalEdgeStyle;html=1;verticalAlign=bottom;endArrow=open;endSize=8;strokeColor=#ff0000;rounded=0;entryX=0;entryY=0.5;entryDx=0;entryDy=0;" parent="qhrFOnnnxK_zlqW1Jflp-1" source="qhrFOnnnxK_zlqW1Jflp-42" target="k8adD4l0ToZcmc2hEq4d-1" edge="1">
          <mxGeometry relative="1" as="geometry">
            <mxPoint x="520" y="760" as="targetPoint" />
            <Array as="points">
              <mxPoint x="440" y="730" />
              <mxPoint x="440" y="730" />
            </Array>
          </mxGeometry>
        </mxCell>
        <mxCell id="qhrFOnnnxK_zlqW1Jflp-48" value="Поиск в списке&lt;br&gt;CITES" style="edgeStyle=orthogonalEdgeStyle;rounded=0;orthogonalLoop=1;jettySize=auto;html=1;exitX=0.5;exitY=1;exitDx=0;exitDy=0;endArrow=open;endFill=0;strokeColor=#FF3333;entryX=0;entryY=0.5;entryDx=0;entryDy=0;" parent="qhrFOnnnxK_zlqW1Jflp-1" source="qhrFOnnnxK_zlqW1Jflp-14" target="qhrFOnnnxK_zlqW1Jflp-49" edge="1">
          <mxGeometry x="-0.9221" y="-45" relative="1" as="geometry">
            <mxPoint x="610" y="880" as="targetPoint" />
            <mxPoint x="50" y="595" as="sourcePoint" />
            <Array as="points">
              <mxPoint x="160" y="860" />
            </Array>
            <mxPoint as="offset" />
          </mxGeometry>
        </mxCell>
        <mxCell id="qhrFOnnnxK_zlqW1Jflp-60" style="edgeStyle=orthogonalEdgeStyle;rounded=0;orthogonalLoop=1;jettySize=auto;html=1;exitX=0.558;exitY=1;exitDx=0;exitDy=0;endArrow=open;endFill=0;strokeColor=#FF3333;entryX=0.75;entryY=1;entryDx=0;entryDy=0;exitPerimeter=0;" parent="qhrFOnnnxK_zlqW1Jflp-1" source="qhrFOnnnxK_zlqW1Jflp-9" target="qhrFOnnnxK_zlqW1Jflp-57" edge="1">
          <mxGeometry relative="1" as="geometry">
            <mxPoint x="10" y="430" as="targetPoint" />
            <Array as="points">
              <mxPoint x="660" y="140" />
              <mxPoint x="660" y="410" />
              <mxPoint x="110" y="410" />
            </Array>
          </mxGeometry>
        </mxCell>
        <mxCell id="qhrFOnnnxK_zlqW1Jflp-62" style="edgeStyle=orthogonalEdgeStyle;rounded=0;orthogonalLoop=1;jettySize=auto;html=1;exitX=0;exitY=0.75;exitDx=0;exitDy=0;endArrow=open;endFill=0;strokeColor=#FF3333;entryX=0.25;entryY=1;entryDx=0;entryDy=0;" parent="qhrFOnnnxK_zlqW1Jflp-1" source="qhrFOnnnxK_zlqW1Jflp-49" target="qhrFOnnnxK_zlqW1Jflp-57" edge="1">
          <mxGeometry relative="1" as="geometry">
            <mxPoint x="-40" y="420" as="targetPoint" />
          </mxGeometry>
        </mxCell>
        <mxCell id="k8adD4l0ToZcmc2hEq4d-63" value="" style="edgeStyle=orthogonalEdgeStyle;html=1;verticalAlign=bottom;endArrow=open;endSize=8;strokeColor=#ff0000;rounded=0;entryX=1;entryY=0.5;entryDx=0;entryDy=0;" parent="qhrFOnnnxK_zlqW1Jflp-1" source="k8adD4l0ToZcmc2hEq4d-62" target="lInFxWvaS7vwNwoNhhbJ-1" edge="1">
          <mxGeometry relative="1" as="geometry">
            <mxPoint x="1050" y="980" as="targetPoint" />
            <Array as="points">
              <mxPoint x="985" y="920" />
            </Array>
          </mxGeometry>
        </mxCell>
        <mxCell id="lInFxWvaS7vwNwoNhhbJ-2" value="" style="edgeStyle=orthogonalEdgeStyle;html=1;verticalAlign=bottom;endArrow=open;endSize=8;strokeColor=#ff0000;rounded=0;entryX=0;entryY=0.5;entryDx=0;entryDy=0;" parent="qhrFOnnnxK_zlqW1Jflp-1" source="lInFxWvaS7vwNwoNhhbJ-1" target="lInFxWvaS7vwNwoNhhbJ-3" edge="1">
          <mxGeometry relative="1" as="geometry">
            <mxPoint x="300" y="1000" as="targetPoint" />
            <Array as="points">
              <mxPoint x="300" y="960" />
            </Array>
          </mxGeometry>
        </mxCell>
        <mxCell id="lInFxWvaS7vwNwoNhhbJ-4" value="" style="edgeStyle=orthogonalEdgeStyle;html=1;verticalAlign=bottom;endArrow=open;endSize=8;strokeColor=#ff0000;rounded=0;entryX=1;entryY=0.5;entryDx=0;entryDy=0;" parent="qhrFOnnnxK_zlqW1Jflp-1" source="lInFxWvaS7vwNwoNhhbJ-3" target="lInFxWvaS7vwNwoNhhbJ-5" edge="1">
          <mxGeometry relative="1" as="geometry">
            <mxPoint x="560" y="1040" as="targetPoint" />
            <Array as="points">
              <mxPoint x="560" y="1013" />
              <mxPoint x="430" y="1013" />
            </Array>
          </mxGeometry>
        </mxCell>
        <mxCell id="lInFxWvaS7vwNwoNhhbJ-43" style="edgeStyle=orthogonalEdgeStyle;rounded=0;orthogonalLoop=1;jettySize=auto;html=1;exitX=0.5;exitY=1;exitDx=0;exitDy=0;entryX=0;entryY=0.5;entryDx=0;entryDy=0;endArrow=open;endFill=0;strokeColor=#FF3333;" parent="qhrFOnnnxK_zlqW1Jflp-1" source="lInFxWvaS7vwNwoNhhbJ-5" target="lInFxWvaS7vwNwoNhhbJ-39" edge="1">
          <mxGeometry relative="1" as="geometry" />
        </mxCell>
        <mxCell id="qhrFOnnnxK_zlqW1Jflp-2" value="Пользователь" style="swimlane;startSize=20;" parent="qhrFOnnnxK_zlqW1Jflp-1" vertex="1">
          <mxGeometry y="20" width="510" height="1570" as="geometry" />
        </mxCell>
        <mxCell id="qhrFOnnnxK_zlqW1Jflp-5" value="" style="ellipse;html=1;shape=startState;fillColor=#000000;strokeColor=#ff0000;" parent="qhrFOnnnxK_zlqW1Jflp-2" vertex="1">
          <mxGeometry x="180" y="75" width="30" height="30" as="geometry" />
        </mxCell>
        <mxCell id="qhrFOnnnxK_zlqW1Jflp-6" value="" style="edgeStyle=orthogonalEdgeStyle;html=1;verticalAlign=bottom;endArrow=open;endSize=8;strokeColor=#ff0000;rounded=0;" parent="qhrFOnnnxK_zlqW1Jflp-2" source="qhrFOnnnxK_zlqW1Jflp-5" target="qhrFOnnnxK_zlqW1Jflp-7" edge="1">
          <mxGeometry relative="1" as="geometry">
            <mxPoint x="380" y="110" as="targetPoint" />
          </mxGeometry>
        </mxCell>
        <mxCell id="qhrFOnnnxK_zlqW1Jflp-7" value="Старт" style="rounded=1;whiteSpace=wrap;html=1;arcSize=40;fontColor=#000000;fillColor=#ffffc0;strokeColor=#ff0000;" parent="qhrFOnnnxK_zlqW1Jflp-2" vertex="1">
          <mxGeometry x="320" y="70" width="120" height="40" as="geometry" />
        </mxCell>
        <mxCell id="qhrFOnnnxK_zlqW1Jflp-61" style="edgeStyle=orthogonalEdgeStyle;rounded=0;orthogonalLoop=1;jettySize=auto;html=1;exitX=0;exitY=0;exitDx=0;exitDy=0;endArrow=open;endFill=0;strokeColor=#FF3333;entryX=0.5;entryY=1;entryDx=0;entryDy=0;" parent="qhrFOnnnxK_zlqW1Jflp-2" source="qhrFOnnnxK_zlqW1Jflp-14" target="qhrFOnnnxK_zlqW1Jflp-57" edge="1">
          <mxGeometry relative="1" as="geometry">
            <mxPoint x="-10" y="400" as="targetPoint" />
            <Array as="points">
              <mxPoint x="80" y="468" />
            </Array>
          </mxGeometry>
        </mxCell>
        <mxCell id="qhrFOnnnxK_zlqW1Jflp-14" value="Управлять элементами &lt;br&gt;списка животных" style="rhombus;whiteSpace=wrap;html=1;fillColor=#ffffc0;strokeColor=#ff0000;" parent="qhrFOnnnxK_zlqW1Jflp-2" vertex="1">
          <mxGeometry x="65" y="440" width="190" height="110" as="geometry" />
        </mxCell>
        <mxCell id="qhrFOnnnxK_zlqW1Jflp-42" value="Взаимодействовать &#xa;с представлением" style="swimlane;fontStyle=1;align=center;verticalAlign=middle;childLayout=stackLayout;horizontal=1;startSize=30;horizontalStack=0;resizeParent=0;resizeLast=1;container=0;fontColor=#000000;collapsible=0;rounded=1;arcSize=30;strokeColor=#ff0000;fillColor=#ffffc0;swimlaneFillColor=#ffffc0;dropTarget=0;" parent="qhrFOnnnxK_zlqW1Jflp-2" vertex="1">
          <mxGeometry x="180" y="690" width="160" height="120" as="geometry" />
        </mxCell>
        <mxCell id="qhrFOnnnxK_zlqW1Jflp-43" value="Ознакомиться с информацией на форме&lt;br&gt;&lt;div&gt;Заполнить форму&lt;/div&gt;&lt;div&gt;Подтвердить действие&lt;br&gt;&lt;/div&gt;" style="text;html=1;strokeColor=none;fillColor=none;align=center;verticalAlign=middle;spacingLeft=4;spacingRight=4;whiteSpace=wrap;overflow=hidden;rotatable=0;fontColor=#000000;" parent="qhrFOnnnxK_zlqW1Jflp-42" vertex="1">
          <mxGeometry y="30" width="160" height="90" as="geometry" />
        </mxCell>
        <mxCell id="qhrFOnnnxK_zlqW1Jflp-57" value="Выход" style="rounded=1;whiteSpace=wrap;html=1;arcSize=40;fontColor=#000000;fillColor=#ffffc0;strokeColor=#ff0000;" parent="qhrFOnnnxK_zlqW1Jflp-2" vertex="1">
          <mxGeometry x="20" y="280" width="120" height="40" as="geometry" />
        </mxCell>
        <mxCell id="qhrFOnnnxK_zlqW1Jflp-58" value="" style="edgeStyle=orthogonalEdgeStyle;html=1;verticalAlign=bottom;endArrow=open;endSize=8;strokeColor=#ff0000;rounded=0;entryX=0.5;entryY=1;entryDx=0;entryDy=0;" parent="qhrFOnnnxK_zlqW1Jflp-2" source="qhrFOnnnxK_zlqW1Jflp-57" target="qhrFOnnnxK_zlqW1Jflp-59" edge="1">
          <mxGeometry relative="1" as="geometry">
            <mxPoint x="70" y="270" as="targetPoint" />
            <Array as="points" />
          </mxGeometry>
        </mxCell>
        <mxCell id="qhrFOnnnxK_zlqW1Jflp-59" value="" style="ellipse;html=1;shape=endState;fillColor=#000000;strokeColor=#ff0000;" parent="qhrFOnnnxK_zlqW1Jflp-2" vertex="1">
          <mxGeometry x="65" y="190" width="30" height="30" as="geometry" />
        </mxCell>
        <mxCell id="lInFxWvaS7vwNwoNhhbJ-1" value="Отреагировать на нотификацию" style="rounded=1;whiteSpace=wrap;html=1;arcSize=40;fontColor=#000000;fillColor=#ffffc0;strokeColor=#ff0000;" parent="qhrFOnnnxK_zlqW1Jflp-2" vertex="1">
          <mxGeometry x="240" y="880" width="120" height="40" as="geometry" />
        </mxCell>
        <mxCell id="lInFxWvaS7vwNwoNhhbJ-5" value="Отметить покормленных&lt;br&gt;животных" style="rounded=1;whiteSpace=wrap;html=1;arcSize=40;fontColor=#000000;fillColor=#ffffc0;strokeColor=#ff0000;" parent="qhrFOnnnxK_zlqW1Jflp-2" vertex="1">
          <mxGeometry x="240" y="965" width="120" height="55" as="geometry" />
        </mxCell>
        <mxCell id="BEc_TrfwK1GDgHwXLkA6-1" value="Управление нотификациями" style="rhombus;whiteSpace=wrap;html=1;fillColor=#ffffc0;strokeColor=#ff0000;" vertex="1" parent="qhrFOnnnxK_zlqW1Jflp-2">
          <mxGeometry x="225" y="180" width="140" height="80" as="geometry" />
        </mxCell>
        <mxCell id="BEc_TrfwK1GDgHwXLkA6-2" value="изменить&lt;br&gt;период" style="edgeStyle=orthogonalEdgeStyle;html=1;align=left;verticalAlign=bottom;endArrow=open;endSize=8;strokeColor=#ff0000;rounded=0;entryX=0.75;entryY=0.5;entryDx=0;entryDy=0;entryPerimeter=0;" edge="1" source="BEc_TrfwK1GDgHwXLkA6-1" parent="qhrFOnnnxK_zlqW1Jflp-2" target="BEc_TrfwK1GDgHwXLkA6-11">
          <mxGeometry x="-0.6676" y="20" relative="1" as="geometry">
            <mxPoint x="460" y="250" as="targetPoint" />
            <Array as="points">
              <mxPoint x="340" y="287" />
              <mxPoint x="410" y="287" />
            </Array>
            <mxPoint as="offset" />
          </mxGeometry>
        </mxCell>
        <mxCell id="BEc_TrfwK1GDgHwXLkA6-3" value="вкл/выкл" style="edgeStyle=orthogonalEdgeStyle;html=1;align=left;verticalAlign=top;endArrow=open;endSize=8;strokeColor=#ff0000;rounded=0;entryX=0.25;entryY=0.5;entryDx=0;entryDy=0;entryPerimeter=0;" edge="1" source="BEc_TrfwK1GDgHwXLkA6-1" parent="qhrFOnnnxK_zlqW1Jflp-2" target="BEc_TrfwK1GDgHwXLkA6-11">
          <mxGeometry x="-0.8246" y="5" relative="1" as="geometry">
            <mxPoint x="295" y="380" as="targetPoint" />
            <Array as="points">
              <mxPoint x="280" y="300" />
              <mxPoint x="350" y="300" />
            </Array>
            <mxPoint as="offset" />
          </mxGeometry>
        </mxCell>
        <mxCell id="BEc_TrfwK1GDgHwXLkA6-4" value="Перейти к управлению нотификациями" style="rounded=1;whiteSpace=wrap;html=1;arcSize=40;fontColor=#000000;fillColor=#ffffc0;strokeColor=#ff0000;" vertex="1" parent="qhrFOnnnxK_zlqW1Jflp-2">
          <mxGeometry x="320" y="120" width="120" height="40" as="geometry" />
        </mxCell>
        <mxCell id="BEc_TrfwK1GDgHwXLkA6-11" value="" style="shape=line;html=1;strokeWidth=6;strokeColor=#ff0000;" vertex="1" parent="qhrFOnnnxK_zlqW1Jflp-2">
          <mxGeometry x="320" y="314" width="120" height="10" as="geometry" />
        </mxCell>
        <mxCell id="qhrFOnnnxK_zlqW1Jflp-3" value="Приложение" style="swimlane;startSize=20;" parent="qhrFOnnnxK_zlqW1Jflp-1" vertex="1">
          <mxGeometry x="510" y="20" width="1020" height="1570" as="geometry" />
        </mxCell>
        <mxCell id="qhrFOnnnxK_zlqW1Jflp-9" value="Отображение списка животных" style="rounded=1;whiteSpace=wrap;html=1;arcSize=40;fontColor=#000000;fillColor=#ffffc0;strokeColor=#ff0000;" parent="qhrFOnnnxK_zlqW1Jflp-3" vertex="1">
          <mxGeometry x="85" y="80" width="120" height="40" as="geometry" />
        </mxCell>
        <mxCell id="qhrFOnnnxK_zlqW1Jflp-17" value="Отобразить представление для выполнения операции" style="rounded=1;whiteSpace=wrap;html=1;arcSize=40;fontColor=#000000;fillColor=#ffffc0;strokeColor=#ff0000;" parent="qhrFOnnnxK_zlqW1Jflp-3" vertex="1">
          <mxGeometry x="75" y="560" width="190" height="70" as="geometry" />
        </mxCell>
        <mxCell id="qhrFOnnnxK_zlqW1Jflp-45" value="Сохранить изменения" style="rounded=1;whiteSpace=wrap;html=1;arcSize=40;fontColor=#000000;fillColor=#ffffc0;strokeColor=#ff0000;" parent="qhrFOnnnxK_zlqW1Jflp-3" vertex="1">
          <mxGeometry x="170" y="690" width="120" height="40" as="geometry" />
        </mxCell>
        <mxCell id="qhrFOnnnxK_zlqW1Jflp-46" value="" style="edgeStyle=orthogonalEdgeStyle;html=1;verticalAlign=bottom;endArrow=open;endSize=8;strokeColor=#ff0000;rounded=0;entryX=0.75;entryY=1;entryDx=0;entryDy=0;" parent="qhrFOnnnxK_zlqW1Jflp-3" source="qhrFOnnnxK_zlqW1Jflp-45" target="qhrFOnnnxK_zlqW1Jflp-9" edge="1">
          <mxGeometry relative="1" as="geometry">
            <mxPoint x="312.5" y="635" as="targetPoint" />
            <Array as="points">
              <mxPoint x="313" y="710" />
              <mxPoint x="313" y="400" />
              <mxPoint x="175" y="400" />
            </Array>
          </mxGeometry>
        </mxCell>
        <mxCell id="qhrFOnnnxK_zlqW1Jflp-49" value="Отобразить представление с результатом поиска и краткой информацией о CITES" style="rounded=1;whiteSpace=wrap;html=1;arcSize=40;fontColor=#000000;fillColor=#ffffc0;strokeColor=#ff0000;" parent="qhrFOnnnxK_zlqW1Jflp-3" vertex="1">
          <mxGeometry x="145" y="800" width="145" height="80" as="geometry" />
        </mxCell>
        <mxCell id="qhrFOnnnxK_zlqW1Jflp-50" value="" style="edgeStyle=orthogonalEdgeStyle;html=1;verticalAlign=bottom;endArrow=open;endSize=8;strokeColor=#ff0000;rounded=0;entryX=1;entryY=0.5;entryDx=0;entryDy=0;" parent="qhrFOnnnxK_zlqW1Jflp-3" source="qhrFOnnnxK_zlqW1Jflp-49" target="qhrFOnnnxK_zlqW1Jflp-9" edge="1">
          <mxGeometry relative="1" as="geometry">
            <mxPoint x="380" y="350" as="targetPoint" />
            <Array as="points">
              <mxPoint x="378" y="840" />
              <mxPoint x="378" y="350" />
              <mxPoint x="218" y="350" />
              <mxPoint x="218" y="100" />
            </Array>
          </mxGeometry>
        </mxCell>
        <mxCell id="k8adD4l0ToZcmc2hEq4d-1" value="Изменить правила нотификации" style="rounded=1;whiteSpace=wrap;html=1;arcSize=40;fontColor=#000000;fillColor=#ffffc0;strokeColor=#ff0000;" parent="qhrFOnnnxK_zlqW1Jflp-3" vertex="1">
          <mxGeometry x="5" y="690" width="120" height="40" as="geometry" />
        </mxCell>
        <mxCell id="k8adD4l0ToZcmc2hEq4d-2" value="" style="edgeStyle=orthogonalEdgeStyle;html=1;verticalAlign=bottom;endArrow=open;endSize=8;strokeColor=#ff0000;rounded=0;entryX=0;entryY=0.5;entryDx=0;entryDy=0;" parent="qhrFOnnnxK_zlqW1Jflp-3" source="k8adD4l0ToZcmc2hEq4d-1" target="qhrFOnnnxK_zlqW1Jflp-45" edge="1">
          <mxGeometry relative="1" as="geometry">
            <mxPoint x="25" y="760" as="targetPoint" />
          </mxGeometry>
        </mxCell>
        <mxCell id="k8adD4l0ToZcmc2hEq4d-3" value="" style="ellipse;html=1;shape=startState;fillColor=#000000;strokeColor=#ff0000;" parent="qhrFOnnnxK_zlqW1Jflp-3" vertex="1">
          <mxGeometry x="562.5" y="150" width="30" height="30" as="geometry" />
        </mxCell>
        <mxCell id="k8adD4l0ToZcmc2hEq4d-4" value="" style="edgeStyle=orthogonalEdgeStyle;html=1;verticalAlign=bottom;endArrow=open;endSize=8;strokeColor=#ff0000;rounded=0;entryX=0.508;entryY=0.1;entryDx=0;entryDy=0;entryPerimeter=0;" parent="qhrFOnnnxK_zlqW1Jflp-3" source="k8adD4l0ToZcmc2hEq4d-3" target="k8adD4l0ToZcmc2hEq4d-11" edge="1">
          <mxGeometry relative="1" as="geometry">
            <mxPoint x="665" y="150" as="targetPoint" />
          </mxGeometry>
        </mxCell>
        <mxCell id="k8adD4l0ToZcmc2hEq4d-10" value="" style="shape=table;html=1;whiteSpace=wrap;startSize=0;container=1;collapsible=0;childLayout=tableLayout;" parent="qhrFOnnnxK_zlqW1Jflp-3" vertex="1">
          <mxGeometry x="545" y="360" width="65" height="30" as="geometry" />
        </mxCell>
        <mxCell id="k8adD4l0ToZcmc2hEq4d-11" value="" style="shape=tableRow;horizontal=0;startSize=0;swimlaneHead=0;swimlaneBody=0;top=0;left=0;bottom=0;right=0;collapsible=0;dropTarget=0;fillColor=none;points=[[0,0.5],[1,0.5]];portConstraint=eastwest;" parent="k8adD4l0ToZcmc2hEq4d-10" vertex="1">
          <mxGeometry width="65" height="10" as="geometry" />
        </mxCell>
        <mxCell id="k8adD4l0ToZcmc2hEq4d-12" value="" style="shape=partialRectangle;html=1;whiteSpace=wrap;connectable=0;fillColor=none;top=0;left=0;bottom=0;right=0;overflow=hidden;" parent="k8adD4l0ToZcmc2hEq4d-11" vertex="1">
          <mxGeometry width="22" height="10" as="geometry">
            <mxRectangle width="22" height="10" as="alternateBounds" />
          </mxGeometry>
        </mxCell>
        <mxCell id="k8adD4l0ToZcmc2hEq4d-13" value="" style="shape=partialRectangle;html=1;whiteSpace=wrap;connectable=0;fillColor=none;top=0;left=0;bottom=0;right=0;overflow=hidden;" parent="k8adD4l0ToZcmc2hEq4d-11" vertex="1">
          <mxGeometry x="22" width="21" height="10" as="geometry">
            <mxRectangle width="21" height="10" as="alternateBounds" />
          </mxGeometry>
        </mxCell>
        <mxCell id="k8adD4l0ToZcmc2hEq4d-14" value="" style="shape=partialRectangle;html=1;whiteSpace=wrap;connectable=0;fillColor=none;top=0;left=0;bottom=0;right=0;overflow=hidden;" parent="k8adD4l0ToZcmc2hEq4d-11" vertex="1">
          <mxGeometry x="43" width="22" height="10" as="geometry">
            <mxRectangle width="22" height="10" as="alternateBounds" />
          </mxGeometry>
        </mxCell>
        <mxCell id="k8adD4l0ToZcmc2hEq4d-15" value="" style="shape=tableRow;horizontal=0;startSize=0;swimlaneHead=0;swimlaneBody=0;top=0;left=0;bottom=0;right=0;collapsible=0;dropTarget=0;fillColor=none;points=[[0,0.5],[1,0.5]];portConstraint=eastwest;" parent="k8adD4l0ToZcmc2hEq4d-10" vertex="1">
          <mxGeometry y="10" width="65" height="10" as="geometry" />
        </mxCell>
        <mxCell id="k8adD4l0ToZcmc2hEq4d-16" value="" style="shape=partialRectangle;html=1;whiteSpace=wrap;connectable=0;fillColor=none;top=0;left=0;bottom=0;right=0;overflow=hidden;" parent="k8adD4l0ToZcmc2hEq4d-15" vertex="1">
          <mxGeometry width="22" height="10" as="geometry">
            <mxRectangle width="22" height="10" as="alternateBounds" />
          </mxGeometry>
        </mxCell>
        <mxCell id="k8adD4l0ToZcmc2hEq4d-17" value="" style="shape=partialRectangle;html=1;whiteSpace=wrap;connectable=0;fillColor=none;top=0;left=0;bottom=0;right=0;overflow=hidden;" parent="k8adD4l0ToZcmc2hEq4d-15" vertex="1">
          <mxGeometry x="22" width="21" height="10" as="geometry">
            <mxRectangle width="21" height="10" as="alternateBounds" />
          </mxGeometry>
        </mxCell>
        <mxCell id="k8adD4l0ToZcmc2hEq4d-18" value="" style="shape=partialRectangle;html=1;whiteSpace=wrap;connectable=0;fillColor=none;top=0;left=0;bottom=0;right=0;overflow=hidden;" parent="k8adD4l0ToZcmc2hEq4d-15" vertex="1">
          <mxGeometry x="43" width="22" height="10" as="geometry">
            <mxRectangle width="22" height="10" as="alternateBounds" />
          </mxGeometry>
        </mxCell>
        <mxCell id="k8adD4l0ToZcmc2hEq4d-19" value="" style="shape=tableRow;horizontal=0;startSize=0;swimlaneHead=0;swimlaneBody=0;top=0;left=0;bottom=0;right=0;collapsible=0;dropTarget=0;fillColor=none;points=[[0,0.5],[1,0.5]];portConstraint=eastwest;" parent="k8adD4l0ToZcmc2hEq4d-10" vertex="1">
          <mxGeometry y="20" width="65" height="10" as="geometry" />
        </mxCell>
        <mxCell id="k8adD4l0ToZcmc2hEq4d-20" value="" style="shape=partialRectangle;html=1;whiteSpace=wrap;connectable=0;fillColor=none;top=0;left=0;bottom=0;right=0;overflow=hidden;" parent="k8adD4l0ToZcmc2hEq4d-19" vertex="1">
          <mxGeometry width="22" height="10" as="geometry">
            <mxRectangle width="22" height="10" as="alternateBounds" />
          </mxGeometry>
        </mxCell>
        <mxCell id="k8adD4l0ToZcmc2hEq4d-21" value="" style="shape=partialRectangle;html=1;whiteSpace=wrap;connectable=0;fillColor=none;top=0;left=0;bottom=0;right=0;overflow=hidden;" parent="k8adD4l0ToZcmc2hEq4d-19" vertex="1">
          <mxGeometry x="22" width="21" height="10" as="geometry">
            <mxRectangle width="21" height="10" as="alternateBounds" />
          </mxGeometry>
        </mxCell>
        <mxCell id="k8adD4l0ToZcmc2hEq4d-22" value="" style="shape=partialRectangle;html=1;whiteSpace=wrap;connectable=0;fillColor=none;top=0;left=0;bottom=0;right=0;overflow=hidden;pointerEvents=1;" parent="k8adD4l0ToZcmc2hEq4d-19" vertex="1">
          <mxGeometry x="43" width="22" height="10" as="geometry">
            <mxRectangle width="22" height="10" as="alternateBounds" />
          </mxGeometry>
        </mxCell>
        <mxCell id="k8adD4l0ToZcmc2hEq4d-23" value="" style="endArrow=none;dashed=1;html=1;rounded=0;strokeColor=#FF3333;exitX=1;exitY=0.5;exitDx=0;exitDy=0;" parent="qhrFOnnnxK_zlqW1Jflp-3" source="k8adD4l0ToZcmc2hEq4d-15" edge="1">
          <mxGeometry width="50" height="50" relative="1" as="geometry">
            <mxPoint x="700" y="500" as="sourcePoint" />
            <mxPoint x="780" y="375" as="targetPoint" />
          </mxGeometry>
        </mxCell>
        <mxCell id="k8adD4l0ToZcmc2hEq4d-25" value="Список нотификаций" style="text;html=1;align=center;verticalAlign=middle;resizable=0;points=[];autosize=1;strokeColor=none;fillColor=none;" parent="qhrFOnnnxK_zlqW1Jflp-3" vertex="1">
          <mxGeometry x="621" y="375" width="140" height="30" as="geometry" />
        </mxCell>
        <mxCell id="k8adD4l0ToZcmc2hEq4d-27" value="Дата совпала &lt;br&gt;с текущей?" style="rhombus;whiteSpace=wrap;html=1;fillColor=#ffffc0;strokeColor=#ff0000;" parent="qhrFOnnnxK_zlqW1Jflp-3" vertex="1">
          <mxGeometry x="480" y="430" width="170" height="80" as="geometry" />
        </mxCell>
        <mxCell id="k8adD4l0ToZcmc2hEq4d-28" value="нет" style="edgeStyle=orthogonalEdgeStyle;html=1;align=left;verticalAlign=bottom;endArrow=open;endSize=8;strokeColor=#ff0000;rounded=0;entryX=0.75;entryY=1;entryDx=0;entryDy=0;" parent="qhrFOnnnxK_zlqW1Jflp-3" target="k8adD4l0ToZcmc2hEq4d-10" edge="1">
          <mxGeometry x="-0.685" relative="1" as="geometry">
            <mxPoint x="720" y="485" as="targetPoint" />
            <mxPoint x="606" y="450" as="sourcePoint" />
            <Array as="points">
              <mxPoint x="608" y="450" />
              <mxPoint x="608" y="430" />
              <mxPoint x="594" y="430" />
            </Array>
            <mxPoint as="offset" />
          </mxGeometry>
        </mxCell>
        <mxCell id="k8adD4l0ToZcmc2hEq4d-29" value="да" style="edgeStyle=orthogonalEdgeStyle;html=1;align=left;verticalAlign=top;endArrow=open;endSize=8;strokeColor=#ff0000;rounded=0;entryX=0;entryY=0.5;entryDx=0;entryDy=0;" parent="qhrFOnnnxK_zlqW1Jflp-3" source="k8adD4l0ToZcmc2hEq4d-27" target="k8adD4l0ToZcmc2hEq4d-33" edge="1">
          <mxGeometry x="-1" relative="1" as="geometry">
            <mxPoint x="527.5" y="725" as="targetPoint" />
            <Array as="points">
              <mxPoint x="565" y="610" />
            </Array>
          </mxGeometry>
        </mxCell>
        <mxCell id="k8adD4l0ToZcmc2hEq4d-30" value="&quot;iterative&quot;" style="text;html=1;align=center;verticalAlign=middle;resizable=0;points=[];autosize=1;strokeColor=none;fillColor=none;" parent="qhrFOnnnxK_zlqW1Jflp-3" vertex="1">
          <mxGeometry x="469" y="379" width="70" height="30" as="geometry" />
        </mxCell>
        <mxCell id="k8adD4l0ToZcmc2hEq4d-26" style="edgeStyle=orthogonalEdgeStyle;rounded=0;orthogonalLoop=1;jettySize=auto;html=1;endArrow=open;endFill=0;strokeColor=#FF3333;entryX=0.5;entryY=0;entryDx=0;entryDy=0;" parent="qhrFOnnnxK_zlqW1Jflp-3" target="k8adD4l0ToZcmc2hEq4d-27" edge="1">
          <mxGeometry relative="1" as="geometry">
            <mxPoint x="570" y="430" as="targetPoint" />
            <mxPoint x="578" y="390" as="sourcePoint" />
            <Array as="points">
              <mxPoint x="578" y="390" />
              <mxPoint x="578" y="410" />
              <mxPoint x="565" y="410" />
            </Array>
          </mxGeometry>
        </mxCell>
        <mxCell id="k8adD4l0ToZcmc2hEq4d-33" value="Пользователь&lt;br&gt;включил &lt;br&gt;оповещение?" style="rhombus;whiteSpace=wrap;html=1;fillColor=#ffffc0;strokeColor=#ff0000;" parent="qhrFOnnnxK_zlqW1Jflp-3" vertex="1">
          <mxGeometry x="610" y="570" width="130" height="80" as="geometry" />
        </mxCell>
        <mxCell id="k8adD4l0ToZcmc2hEq4d-34" value="нет" style="edgeStyle=orthogonalEdgeStyle;html=1;align=left;verticalAlign=bottom;endArrow=open;endSize=8;strokeColor=#ff0000;rounded=0;entryX=1;entryY=0.5;entryDx=0;entryDy=0;" parent="qhrFOnnnxK_zlqW1Jflp-3" source="k8adD4l0ToZcmc2hEq4d-33" target="k8adD4l0ToZcmc2hEq4d-19" edge="1">
          <mxGeometry x="-1" relative="1" as="geometry">
            <mxPoint x="780" y="485" as="targetPoint" />
            <Array as="points">
              <mxPoint x="675" y="410" />
              <mxPoint x="630" y="410" />
              <mxPoint x="630" y="385" />
            </Array>
          </mxGeometry>
        </mxCell>
        <mxCell id="k8adD4l0ToZcmc2hEq4d-35" value="да" style="edgeStyle=orthogonalEdgeStyle;html=1;align=left;verticalAlign=top;endArrow=open;endSize=8;strokeColor=#ff0000;rounded=0;entryX=1;entryY=0.5;entryDx=0;entryDy=0;" parent="qhrFOnnnxK_zlqW1Jflp-3" source="k8adD4l0ToZcmc2hEq4d-33" target="k8adD4l0ToZcmc2hEq4d-38" edge="1">
          <mxGeometry x="-0.8431" y="10" relative="1" as="geometry">
            <mxPoint x="627.5" y="725" as="targetPoint" />
            <Array as="points">
              <mxPoint x="675" y="680" />
            </Array>
            <mxPoint as="offset" />
          </mxGeometry>
        </mxCell>
        <mxCell id="k8adD4l0ToZcmc2hEq4d-38" value="Добавить в очередь кормления" style="rounded=1;whiteSpace=wrap;html=1;arcSize=40;fontColor=#000000;fillColor=#ffffc0;strokeColor=#ff0000;" parent="qhrFOnnnxK_zlqW1Jflp-3" vertex="1">
          <mxGeometry x="517.5" y="660" width="120" height="40" as="geometry" />
        </mxCell>
        <mxCell id="k8adD4l0ToZcmc2hEq4d-57" value="" style="endArrow=none;dashed=1;html=1;rounded=0;strokeColor=#FF3333;" parent="qhrFOnnnxK_zlqW1Jflp-3" edge="1">
          <mxGeometry width="50" height="50" relative="1" as="geometry">
            <mxPoint x="780" y="740" as="sourcePoint" />
            <mxPoint x="780" y="370" as="targetPoint" />
          </mxGeometry>
        </mxCell>
        <mxCell id="k8adD4l0ToZcmc2hEq4d-60" value="" style="endArrow=none;dashed=1;html=1;rounded=0;strokeColor=#FF3333;" parent="qhrFOnnnxK_zlqW1Jflp-3" edge="1">
          <mxGeometry width="50" height="50" relative="1" as="geometry">
            <mxPoint x="460" y="740" as="sourcePoint" />
            <mxPoint x="460" y="380" as="targetPoint" />
          </mxGeometry>
        </mxCell>
        <mxCell id="k8adD4l0ToZcmc2hEq4d-61" value="" style="endArrow=none;dashed=1;html=1;rounded=0;strokeColor=#FF3333;" parent="qhrFOnnnxK_zlqW1Jflp-3" edge="1">
          <mxGeometry width="50" height="50" relative="1" as="geometry">
            <mxPoint x="460" y="740" as="sourcePoint" />
            <mxPoint x="780" y="740" as="targetPoint" />
          </mxGeometry>
        </mxCell>
        <mxCell id="k8adD4l0ToZcmc2hEq4d-62" value="Показать пользователю&lt;br&gt;нотификацию" style="rounded=1;whiteSpace=wrap;html=1;arcSize=40;fontColor=#000000;fillColor=#ffffc0;strokeColor=#ff0000;" parent="qhrFOnnnxK_zlqW1Jflp-3" vertex="1">
          <mxGeometry x="450" y="815" width="130" height="50" as="geometry" />
        </mxCell>
        <mxCell id="k8adD4l0ToZcmc2hEq4d-40" style="edgeStyle=orthogonalEdgeStyle;rounded=0;orthogonalLoop=1;jettySize=auto;html=1;endArrow=open;endFill=0;strokeColor=#FF3333;entryX=0.5;entryY=0;entryDx=0;entryDy=0;" parent="qhrFOnnnxK_zlqW1Jflp-3" source="k8adD4l0ToZcmc2hEq4d-38" target="k8adD4l0ToZcmc2hEq4d-64" edge="1">
          <mxGeometry relative="1" as="geometry">
            <mxPoint x="720" y="790" as="targetPoint" />
            <Array as="points">
              <mxPoint x="578" y="720" />
              <mxPoint x="720" y="720" />
            </Array>
          </mxGeometry>
        </mxCell>
        <mxCell id="k8adD4l0ToZcmc2hEq4d-64" value="Очередь кормления пуста?" style="rhombus;whiteSpace=wrap;html=1;fillColor=#ffffc0;strokeColor=#ff0000;" parent="qhrFOnnnxK_zlqW1Jflp-3" vertex="1">
          <mxGeometry x="650" y="790" width="140" height="100" as="geometry" />
        </mxCell>
        <mxCell id="k8adD4l0ToZcmc2hEq4d-65" value="Нет" style="edgeStyle=orthogonalEdgeStyle;html=1;align=left;verticalAlign=bottom;endArrow=open;endSize=8;strokeColor=#ff0000;rounded=0;entryX=1;entryY=0.5;entryDx=0;entryDy=0;exitX=0;exitY=0.5;exitDx=0;exitDy=0;" parent="qhrFOnnnxK_zlqW1Jflp-3" edge="1" source="k8adD4l0ToZcmc2hEq4d-64">
          <mxGeometry x="-0.1429" y="-10" relative="1" as="geometry">
            <mxPoint x="580" y="840" as="targetPoint" />
            <mxPoint x="650" y="840" as="sourcePoint" />
            <mxPoint as="offset" />
          </mxGeometry>
        </mxCell>
        <mxCell id="k8adD4l0ToZcmc2hEq4d-66" value="Да" style="edgeStyle=orthogonalEdgeStyle;html=1;align=left;verticalAlign=top;endArrow=open;endSize=8;strokeColor=#ff0000;rounded=0;exitX=0.5;exitY=1;exitDx=0;exitDy=0;" parent="qhrFOnnnxK_zlqW1Jflp-3" source="k8adD4l0ToZcmc2hEq4d-64" target="k8adD4l0ToZcmc2hEq4d-67" edge="1">
          <mxGeometry x="-1" relative="1" as="geometry">
            <mxPoint x="720" y="980" as="targetPoint" />
            <mxPoint x="690" y="920" as="sourcePoint" />
          </mxGeometry>
        </mxCell>
        <mxCell id="k8adD4l0ToZcmc2hEq4d-67" value="" style="ellipse;html=1;shape=endState;fillColor=#000000;strokeColor=#ff0000;" parent="qhrFOnnnxK_zlqW1Jflp-3" vertex="1">
          <mxGeometry x="705" y="965" width="30" height="30" as="geometry" />
        </mxCell>
        <mxCell id="lInFxWvaS7vwNwoNhhbJ-3" value="Показать&lt;br&gt;очередь кормления" style="rounded=1;whiteSpace=wrap;html=1;arcSize=40;fontColor=#000000;fillColor=#ffffc0;strokeColor=#ff0000;" parent="qhrFOnnnxK_zlqW1Jflp-3" vertex="1">
          <mxGeometry x="30" y="920" width="120" height="40" as="geometry" />
        </mxCell>
        <mxCell id="lInFxWvaS7vwNwoNhhbJ-7" value="" style="shape=table;html=1;whiteSpace=wrap;startSize=0;container=1;collapsible=0;childLayout=tableLayout;" parent="qhrFOnnnxK_zlqW1Jflp-3" vertex="1">
          <mxGeometry x="326.5" y="1050" width="65" height="30" as="geometry" />
        </mxCell>
        <mxCell id="lInFxWvaS7vwNwoNhhbJ-8" value="" style="shape=tableRow;horizontal=0;startSize=0;swimlaneHead=0;swimlaneBody=0;top=0;left=0;bottom=0;right=0;collapsible=0;dropTarget=0;fillColor=none;points=[[0,0.5],[1,0.5]];portConstraint=eastwest;" parent="lInFxWvaS7vwNwoNhhbJ-7" vertex="1">
          <mxGeometry width="65" height="10" as="geometry" />
        </mxCell>
        <mxCell id="lInFxWvaS7vwNwoNhhbJ-9" value="" style="shape=partialRectangle;html=1;whiteSpace=wrap;connectable=0;fillColor=none;top=0;left=0;bottom=0;right=0;overflow=hidden;" parent="lInFxWvaS7vwNwoNhhbJ-8" vertex="1">
          <mxGeometry width="22" height="10" as="geometry">
            <mxRectangle width="22" height="10" as="alternateBounds" />
          </mxGeometry>
        </mxCell>
        <mxCell id="lInFxWvaS7vwNwoNhhbJ-10" value="" style="shape=partialRectangle;html=1;whiteSpace=wrap;connectable=0;fillColor=none;top=0;left=0;bottom=0;right=0;overflow=hidden;" parent="lInFxWvaS7vwNwoNhhbJ-8" vertex="1">
          <mxGeometry x="22" width="21" height="10" as="geometry">
            <mxRectangle width="21" height="10" as="alternateBounds" />
          </mxGeometry>
        </mxCell>
        <mxCell id="lInFxWvaS7vwNwoNhhbJ-11" value="" style="shape=partialRectangle;html=1;whiteSpace=wrap;connectable=0;fillColor=none;top=0;left=0;bottom=0;right=0;overflow=hidden;" parent="lInFxWvaS7vwNwoNhhbJ-8" vertex="1">
          <mxGeometry x="43" width="22" height="10" as="geometry">
            <mxRectangle width="22" height="10" as="alternateBounds" />
          </mxGeometry>
        </mxCell>
        <mxCell id="lInFxWvaS7vwNwoNhhbJ-12" value="" style="shape=tableRow;horizontal=0;startSize=0;swimlaneHead=0;swimlaneBody=0;top=0;left=0;bottom=0;right=0;collapsible=0;dropTarget=0;fillColor=none;points=[[0,0.5],[1,0.5]];portConstraint=eastwest;" parent="lInFxWvaS7vwNwoNhhbJ-7" vertex="1">
          <mxGeometry y="10" width="65" height="10" as="geometry" />
        </mxCell>
        <mxCell id="lInFxWvaS7vwNwoNhhbJ-13" value="" style="shape=partialRectangle;html=1;whiteSpace=wrap;connectable=0;fillColor=none;top=0;left=0;bottom=0;right=0;overflow=hidden;" parent="lInFxWvaS7vwNwoNhhbJ-12" vertex="1">
          <mxGeometry width="22" height="10" as="geometry">
            <mxRectangle width="22" height="10" as="alternateBounds" />
          </mxGeometry>
        </mxCell>
        <mxCell id="lInFxWvaS7vwNwoNhhbJ-14" value="" style="shape=partialRectangle;html=1;whiteSpace=wrap;connectable=0;fillColor=none;top=0;left=0;bottom=0;right=0;overflow=hidden;" parent="lInFxWvaS7vwNwoNhhbJ-12" vertex="1">
          <mxGeometry x="22" width="21" height="10" as="geometry">
            <mxRectangle width="21" height="10" as="alternateBounds" />
          </mxGeometry>
        </mxCell>
        <mxCell id="lInFxWvaS7vwNwoNhhbJ-15" value="" style="shape=partialRectangle;html=1;whiteSpace=wrap;connectable=0;fillColor=none;top=0;left=0;bottom=0;right=0;overflow=hidden;" parent="lInFxWvaS7vwNwoNhhbJ-12" vertex="1">
          <mxGeometry x="43" width="22" height="10" as="geometry">
            <mxRectangle width="22" height="10" as="alternateBounds" />
          </mxGeometry>
        </mxCell>
        <mxCell id="lInFxWvaS7vwNwoNhhbJ-16" value="" style="shape=tableRow;horizontal=0;startSize=0;swimlaneHead=0;swimlaneBody=0;top=0;left=0;bottom=0;right=0;collapsible=0;dropTarget=0;fillColor=none;points=[[0,0.5],[1,0.5]];portConstraint=eastwest;" parent="lInFxWvaS7vwNwoNhhbJ-7" vertex="1">
          <mxGeometry y="20" width="65" height="10" as="geometry" />
        </mxCell>
        <mxCell id="lInFxWvaS7vwNwoNhhbJ-17" value="" style="shape=partialRectangle;html=1;whiteSpace=wrap;connectable=0;fillColor=none;top=0;left=0;bottom=0;right=0;overflow=hidden;" parent="lInFxWvaS7vwNwoNhhbJ-16" vertex="1">
          <mxGeometry width="22" height="10" as="geometry">
            <mxRectangle width="22" height="10" as="alternateBounds" />
          </mxGeometry>
        </mxCell>
        <mxCell id="lInFxWvaS7vwNwoNhhbJ-18" value="" style="shape=partialRectangle;html=1;whiteSpace=wrap;connectable=0;fillColor=none;top=0;left=0;bottom=0;right=0;overflow=hidden;" parent="lInFxWvaS7vwNwoNhhbJ-16" vertex="1">
          <mxGeometry x="22" width="21" height="10" as="geometry">
            <mxRectangle width="21" height="10" as="alternateBounds" />
          </mxGeometry>
        </mxCell>
        <mxCell id="lInFxWvaS7vwNwoNhhbJ-19" value="" style="shape=partialRectangle;html=1;whiteSpace=wrap;connectable=0;fillColor=none;top=0;left=0;bottom=0;right=0;overflow=hidden;pointerEvents=1;" parent="lInFxWvaS7vwNwoNhhbJ-16" vertex="1">
          <mxGeometry x="43" width="22" height="10" as="geometry">
            <mxRectangle width="22" height="10" as="alternateBounds" />
          </mxGeometry>
        </mxCell>
        <mxCell id="lInFxWvaS7vwNwoNhhbJ-20" value="" style="endArrow=none;dashed=1;html=1;rounded=0;strokeColor=#FF3333;exitX=1;exitY=0.5;exitDx=0;exitDy=0;" parent="qhrFOnnnxK_zlqW1Jflp-3" source="lInFxWvaS7vwNwoNhhbJ-12" edge="1">
          <mxGeometry width="50" height="50" relative="1" as="geometry">
            <mxPoint x="-18.5" y="1170" as="sourcePoint" />
            <mxPoint x="561.5" y="1065" as="targetPoint" />
          </mxGeometry>
        </mxCell>
        <mxCell id="lInFxWvaS7vwNwoNhhbJ-21" value="Очередь кормления" style="text;html=1;align=center;verticalAlign=middle;resizable=0;points=[];autosize=1;strokeColor=none;fillColor=none;" parent="qhrFOnnnxK_zlqW1Jflp-3" vertex="1">
          <mxGeometry x="407.5" y="1065" width="130" height="30" as="geometry" />
        </mxCell>
        <mxCell id="lInFxWvaS7vwNwoNhhbJ-25" value="&quot;iterative&quot;" style="text;html=1;align=center;verticalAlign=middle;resizable=0;points=[];autosize=1;strokeColor=none;fillColor=none;" parent="qhrFOnnnxK_zlqW1Jflp-3" vertex="1">
          <mxGeometry x="250.5" y="1069" width="70" height="30" as="geometry" />
        </mxCell>
        <mxCell id="lInFxWvaS7vwNwoNhhbJ-31" value="" style="endArrow=none;dashed=1;html=1;rounded=0;strokeColor=#FF3333;" parent="qhrFOnnnxK_zlqW1Jflp-3" edge="1">
          <mxGeometry width="50" height="50" relative="1" as="geometry">
            <mxPoint x="561.5" y="1430" as="sourcePoint" />
            <mxPoint x="561.5" y="1060" as="targetPoint" />
          </mxGeometry>
        </mxCell>
        <mxCell id="lInFxWvaS7vwNwoNhhbJ-32" value="" style="endArrow=none;dashed=1;html=1;rounded=0;strokeColor=#FF3333;" parent="qhrFOnnnxK_zlqW1Jflp-3" edge="1">
          <mxGeometry width="50" height="50" relative="1" as="geometry">
            <mxPoint x="242" y="1430" as="sourcePoint" />
            <mxPoint x="241.5" y="1070" as="targetPoint" />
            <Array as="points">
              <mxPoint x="242" y="1260" />
            </Array>
          </mxGeometry>
        </mxCell>
        <mxCell id="lInFxWvaS7vwNwoNhhbJ-33" value="" style="endArrow=none;dashed=1;html=1;rounded=0;strokeColor=#FF3333;" parent="qhrFOnnnxK_zlqW1Jflp-3" edge="1">
          <mxGeometry width="50" height="50" relative="1" as="geometry">
            <mxPoint x="241.5" y="1430" as="sourcePoint" />
            <mxPoint x="561.5" y="1430" as="targetPoint" />
          </mxGeometry>
        </mxCell>
        <mxCell id="lInFxWvaS7vwNwoNhhbJ-34" value="" style="endArrow=none;dashed=1;html=1;rounded=0;strokeColor=#FF3333;exitX=0;exitY=0.5;exitDx=0;exitDy=0;" parent="qhrFOnnnxK_zlqW1Jflp-3" source="lInFxWvaS7vwNwoNhhbJ-12" edge="1">
          <mxGeometry width="50" height="50" relative="1" as="geometry">
            <mxPoint x="401.5" y="1075" as="sourcePoint" />
            <mxPoint x="241.5" y="1065" as="targetPoint" />
          </mxGeometry>
        </mxCell>
        <mxCell id="lInFxWvaS7vwNwoNhhbJ-39" value="Ничего не отмечено" style="rhombus;whiteSpace=wrap;html=1;fillColor=#ffffc0;strokeColor=#ff0000;" parent="qhrFOnnnxK_zlqW1Jflp-3" vertex="1">
          <mxGeometry x="42.5" y="1032" width="95" height="66" as="geometry" />
        </mxCell>
        <mxCell id="lInFxWvaS7vwNwoNhhbJ-40" value="Нет" style="edgeStyle=orthogonalEdgeStyle;html=1;align=left;verticalAlign=bottom;endArrow=open;endSize=8;strokeColor=#ff0000;rounded=0;entryX=0;entryY=0.5;entryDx=0;entryDy=0;" parent="qhrFOnnnxK_zlqW1Jflp-3" source="lInFxWvaS7vwNwoNhhbJ-39" target="lInFxWvaS7vwNwoNhhbJ-8" edge="1">
          <mxGeometry x="-1" relative="1" as="geometry">
            <mxPoint x="150" y="1067" as="targetPoint" />
          </mxGeometry>
        </mxCell>
        <mxCell id="lInFxWvaS7vwNwoNhhbJ-41" value="Да" style="edgeStyle=orthogonalEdgeStyle;html=1;align=left;verticalAlign=top;endArrow=open;endSize=8;strokeColor=#ff0000;rounded=0;entryX=0.5;entryY=0;entryDx=0;entryDy=0;" parent="qhrFOnnnxK_zlqW1Jflp-3" source="lInFxWvaS7vwNwoNhhbJ-39" edge="1" target="lInFxWvaS7vwNwoNhhbJ-42">
          <mxGeometry x="-1" relative="1" as="geometry">
            <mxPoint x="40" y="1180" as="targetPoint" />
            <Array as="points">
              <mxPoint x="58" y="1140" />
              <mxPoint x="58" y="1140" />
            </Array>
          </mxGeometry>
        </mxCell>
        <mxCell id="lInFxWvaS7vwNwoNhhbJ-42" value="" style="ellipse;html=1;shape=endState;fillColor=#000000;strokeColor=#ff0000;" parent="qhrFOnnnxK_zlqW1Jflp-3" vertex="1">
          <mxGeometry x="42.5" y="1206" width="30" height="30" as="geometry" />
        </mxCell>
        <mxCell id="lInFxWvaS7vwNwoNhhbJ-44" value="Сдвинуть дату последнего кормления на период" style="rounded=1;whiteSpace=wrap;html=1;arcSize=40;fontColor=#000000;fillColor=#ffffc0;strokeColor=#ff0000;" parent="qhrFOnnnxK_zlqW1Jflp-3" vertex="1">
          <mxGeometry x="294" y="1110" width="130" height="50" as="geometry" />
        </mxCell>
        <mxCell id="lInFxWvaS7vwNwoNhhbJ-45" value="" style="edgeStyle=orthogonalEdgeStyle;html=1;verticalAlign=bottom;endArrow=open;endSize=8;strokeColor=#ff0000;rounded=0;entryX=0.5;entryY=0;entryDx=0;entryDy=0;" parent="qhrFOnnnxK_zlqW1Jflp-3" source="lInFxWvaS7vwNwoNhhbJ-44" target="lInFxWvaS7vwNwoNhhbJ-46" edge="1">
          <mxGeometry relative="1" as="geometry">
            <mxPoint x="360" y="1210" as="targetPoint" />
          </mxGeometry>
        </mxCell>
        <mxCell id="lInFxWvaS7vwNwoNhhbJ-51" style="edgeStyle=orthogonalEdgeStyle;rounded=0;orthogonalLoop=1;jettySize=auto;html=1;exitX=0.5;exitY=1;exitDx=0;exitDy=0;entryX=0.5;entryY=0;entryDx=0;entryDy=0;endArrow=open;endFill=0;strokeColor=#FF3333;" parent="qhrFOnnnxK_zlqW1Jflp-3" source="lInFxWvaS7vwNwoNhhbJ-46" target="lInFxWvaS7vwNwoNhhbJ-49" edge="1">
          <mxGeometry relative="1" as="geometry" />
        </mxCell>
        <mxCell id="lInFxWvaS7vwNwoNhhbJ-46" value="Сдвинуть дату следующей нотификации&amp;nbsp; на период" style="rounded=1;whiteSpace=wrap;html=1;arcSize=40;fontColor=#000000;fillColor=#ffffc0;strokeColor=#ff0000;" parent="qhrFOnnnxK_zlqW1Jflp-3" vertex="1">
          <mxGeometry x="294" y="1190" width="130" height="80" as="geometry" />
        </mxCell>
        <mxCell id="lInFxWvaS7vwNwoNhhbJ-48" style="edgeStyle=orthogonalEdgeStyle;rounded=0;orthogonalLoop=1;jettySize=auto;html=1;exitX=0;exitY=0.5;exitDx=0;exitDy=0;entryX=0.25;entryY=0;entryDx=0;entryDy=0;endArrow=open;endFill=0;strokeColor=#FF3333;" parent="qhrFOnnnxK_zlqW1Jflp-3" source="lInFxWvaS7vwNwoNhhbJ-16" target="lInFxWvaS7vwNwoNhhbJ-44" edge="1">
          <mxGeometry relative="1" as="geometry">
            <Array as="points">
              <mxPoint x="327" y="1100" />
            </Array>
          </mxGeometry>
        </mxCell>
        <mxCell id="lInFxWvaS7vwNwoNhhbJ-49" value="Пометить кормежку как состоявшуюся" style="rounded=1;whiteSpace=wrap;html=1;arcSize=40;fontColor=#000000;fillColor=#ffffc0;strokeColor=#ff0000;" parent="qhrFOnnnxK_zlqW1Jflp-3" vertex="1">
          <mxGeometry x="299" y="1300" width="120" height="40" as="geometry" />
        </mxCell>
        <mxCell id="BEc_TrfwK1GDgHwXLkA6-7" value="Отображение списка нотификаций" style="rounded=1;whiteSpace=wrap;html=1;arcSize=40;fontColor=#000000;fillColor=#ffffc0;strokeColor=#ff0000;" vertex="1" parent="qhrFOnnnxK_zlqW1Jflp-3">
          <mxGeometry x="20" y="140" width="90" height="40" as="geometry" />
        </mxCell>
        <mxCell id="BEc_TrfwK1GDgHwXLkA6-9" value="Сохранить изменения" style="rounded=1;whiteSpace=wrap;html=1;arcSize=40;fontColor=#000000;fillColor=#ffffc0;strokeColor=#ff0000;" vertex="1" parent="qhrFOnnnxK_zlqW1Jflp-3">
          <mxGeometry x="43" y="220" width="102" height="40" as="geometry" />
        </mxCell>
        <mxCell id="BEc_TrfwK1GDgHwXLkA6-10" value="" style="edgeStyle=orthogonalEdgeStyle;html=1;verticalAlign=bottom;endArrow=open;endSize=8;strokeColor=#ff0000;rounded=0;entryX=0.375;entryY=1;entryDx=0;entryDy=0;exitX=0.85;exitY=0.025;exitDx=0;exitDy=0;exitPerimeter=0;entryPerimeter=0;" edge="1" source="BEc_TrfwK1GDgHwXLkA6-9" parent="qhrFOnnnxK_zlqW1Jflp-3" target="qhrFOnnnxK_zlqW1Jflp-9">
          <mxGeometry relative="1" as="geometry">
            <mxPoint x="-340" y="230" as="targetPoint" />
            <Array as="points">
              <mxPoint x="130" y="211" />
            </Array>
          </mxGeometry>
        </mxCell>
        <mxCell id="BEc_TrfwK1GDgHwXLkA6-6" style="edgeStyle=orthogonalEdgeStyle;rounded=0;orthogonalLoop=1;jettySize=auto;html=1;exitX=0;exitY=0.5;exitDx=0;exitDy=0;entryX=1;entryY=0.25;entryDx=0;entryDy=0;endArrow=open;endFill=0;strokeColor=#FF3333;" edge="1" parent="qhrFOnnnxK_zlqW1Jflp-1" source="qhrFOnnnxK_zlqW1Jflp-9" target="BEc_TrfwK1GDgHwXLkA6-4">
          <mxGeometry relative="1" as="geometry" />
        </mxCell>
        <mxCell id="BEc_TrfwK1GDgHwXLkA6-5" value="" style="edgeStyle=orthogonalEdgeStyle;html=1;verticalAlign=bottom;endArrow=open;endSize=8;strokeColor=#ff0000;rounded=0;entryX=0;entryY=0.25;entryDx=0;entryDy=0;" edge="1" source="BEc_TrfwK1GDgHwXLkA6-4" parent="qhrFOnnnxK_zlqW1Jflp-1" target="BEc_TrfwK1GDgHwXLkA6-7">
          <mxGeometry relative="1" as="geometry">
            <mxPoint x="380" y="240" as="targetPoint" />
          </mxGeometry>
        </mxCell>
        <mxCell id="BEc_TrfwK1GDgHwXLkA6-8" style="edgeStyle=orthogonalEdgeStyle;rounded=0;orthogonalLoop=1;jettySize=auto;html=1;exitX=0;exitY=0.75;exitDx=0;exitDy=0;entryX=1;entryY=0;entryDx=0;entryDy=0;endArrow=open;endFill=0;strokeColor=#FF3333;" edge="1" parent="qhrFOnnnxK_zlqW1Jflp-1" source="BEc_TrfwK1GDgHwXLkA6-7" target="BEc_TrfwK1GDgHwXLkA6-1">
          <mxGeometry relative="1" as="geometry">
            <Array as="points">
              <mxPoint x="380" y="190" />
              <mxPoint x="380" y="220" />
            </Array>
          </mxGeometry>
        </mxCell>
        <mxCell id="BEc_TrfwK1GDgHwXLkA6-12" value="" style="edgeStyle=orthogonalEdgeStyle;html=1;verticalAlign=bottom;endArrow=open;endSize=8;strokeColor=#ff0000;rounded=0;entryX=0.25;entryY=1;entryDx=0;entryDy=0;" edge="1" source="BEc_TrfwK1GDgHwXLkA6-11" parent="qhrFOnnnxK_zlqW1Jflp-1" target="BEc_TrfwK1GDgHwXLkA6-9">
          <mxGeometry relative="1" as="geometry">
            <mxPoint x="420" y="414" as="targetPoint" />
          </mxGeometry>
        </mxCell>
        <mxCell id="k8adD4l0ToZcmc2hEq4d-24" value="" style="endArrow=none;dashed=1;html=1;rounded=0;strokeColor=#FF3333;exitX=0;exitY=0.5;exitDx=0;exitDy=0;" parent="1" source="k8adD4l0ToZcmc2hEq4d-15" edge="1">
          <mxGeometry width="50" height="50" relative="1" as="geometry">
            <mxPoint x="1120" y="405" as="sourcePoint" />
            <mxPoint x="1000" y="395" as="targetPoint" />
          </mxGeometry>
        </mxCell>
        <mxCell id="lInFxWvaS7vwNwoNhhbJ-52" value="" style="edgeStyle=orthogonalEdgeStyle;html=1;verticalAlign=bottom;endArrow=open;endSize=8;strokeColor=#ff0000;rounded=0;entryX=0.5;entryY=1;entryDx=0;entryDy=0;" parent="1" target="lInFxWvaS7vwNwoNhhbJ-42" edge="1">
          <mxGeometry relative="1" as="geometry">
            <mxPoint x="870" y="1460" as="targetPoint" />
            <mxPoint x="780" y="1390" as="sourcePoint" />
          </mxGeometry>
        </mxCell>
      </root>
    </mxGraphModel>
  </diagram>
  <diagram id="psDksbxjOdSRrVThNkkf" name="UseCases">
    <mxGraphModel dx="1038" dy="564" grid="1" gridSize="10" guides="1" tooltips="1" connect="1" arrows="1" fold="1" page="1" pageScale="1" pageWidth="1169" pageHeight="827" math="0" shadow="0">
      <root>
        <mxCell id="0" />
        <mxCell id="1" parent="0" />
        <mxCell id="p9xSU8n0x60PEv_NVzDk-5" style="edgeStyle=orthogonalEdgeStyle;rounded=0;orthogonalLoop=1;jettySize=auto;html=1;exitX=1;exitY=0.3333333333333333;exitDx=0;exitDy=0;exitPerimeter=0;entryX=0;entryY=0.5;entryDx=0;entryDy=0;endArrow=block;endFill=1;strokeColor=#000000;" edge="1" parent="1" source="6DhYLbE_D7j-6P8XjbPQ-1" target="6DhYLbE_D7j-6P8XjbPQ-2">
          <mxGeometry relative="1" as="geometry">
            <Array as="points">
              <mxPoint x="80" y="80" />
              <mxPoint x="80" y="125" />
            </Array>
          </mxGeometry>
        </mxCell>
        <mxCell id="p9xSU8n0x60PEv_NVzDk-6" style="edgeStyle=orthogonalEdgeStyle;rounded=0;orthogonalLoop=1;jettySize=auto;html=1;exitX=1;exitY=0.3333333333333333;exitDx=0;exitDy=0;exitPerimeter=0;endArrow=block;endFill=1;strokeColor=#000000;" edge="1" parent="1" source="6DhYLbE_D7j-6P8XjbPQ-1" target="p9xSU8n0x60PEv_NVzDk-1">
          <mxGeometry relative="1" as="geometry" />
        </mxCell>
        <mxCell id="p9xSU8n0x60PEv_NVzDk-8" style="edgeStyle=orthogonalEdgeStyle;rounded=0;orthogonalLoop=1;jettySize=auto;html=1;exitX=1;exitY=0.3333333333333333;exitDx=0;exitDy=0;exitPerimeter=0;entryX=0;entryY=0;entryDx=0;entryDy=0;endArrow=block;endFill=1;strokeColor=#000000;" edge="1" parent="1" source="6DhYLbE_D7j-6P8XjbPQ-1" target="p9xSU8n0x60PEv_NVzDk-3">
          <mxGeometry relative="1" as="geometry">
            <Array as="points">
              <mxPoint x="80" y="80" />
              <mxPoint x="80" y="210" />
              <mxPoint x="451" y="210" />
            </Array>
          </mxGeometry>
        </mxCell>
        <mxCell id="p9xSU8n0x60PEv_NVzDk-9" style="edgeStyle=orthogonalEdgeStyle;rounded=0;orthogonalLoop=1;jettySize=auto;html=1;exitX=1;exitY=0.3333333333333333;exitDx=0;exitDy=0;exitPerimeter=0;entryX=0.5;entryY=0;entryDx=0;entryDy=0;endArrow=block;endFill=1;strokeColor=#000000;" edge="1" parent="1" source="6DhYLbE_D7j-6P8XjbPQ-1" target="p9xSU8n0x60PEv_NVzDk-2">
          <mxGeometry relative="1" as="geometry">
            <Array as="points">
              <mxPoint x="80" y="80" />
              <mxPoint x="80" y="210" />
              <mxPoint x="200" y="210" />
            </Array>
          </mxGeometry>
        </mxCell>
        <mxCell id="p9xSU8n0x60PEv_NVzDk-10" style="edgeStyle=orthogonalEdgeStyle;rounded=0;orthogonalLoop=1;jettySize=auto;html=1;exitX=1;exitY=0.3333333333333333;exitDx=0;exitDy=0;exitPerimeter=0;entryX=0;entryY=0;entryDx=0;entryDy=0;endArrow=block;endFill=1;strokeColor=#000000;" edge="1" parent="1" source="6DhYLbE_D7j-6P8XjbPQ-1" target="p9xSU8n0x60PEv_NVzDk-4">
          <mxGeometry relative="1" as="geometry">
            <Array as="points">
              <mxPoint x="80" y="80" />
              <mxPoint x="80" y="210" />
              <mxPoint x="301" y="210" />
            </Array>
          </mxGeometry>
        </mxCell>
        <mxCell id="p9xSU8n0x60PEv_NVzDk-15" style="edgeStyle=orthogonalEdgeStyle;rounded=0;orthogonalLoop=1;jettySize=auto;html=1;exitX=1;exitY=0.3333333333333333;exitDx=0;exitDy=0;exitPerimeter=0;entryX=0;entryY=0;entryDx=0;entryDy=0;endArrow=block;endFill=1;strokeColor=#000000;" edge="1" parent="1" source="6DhYLbE_D7j-6P8XjbPQ-1" target="p9xSU8n0x60PEv_NVzDk-14">
          <mxGeometry relative="1" as="geometry">
            <Array as="points">
              <mxPoint x="80" y="80" />
              <mxPoint x="80" y="470" />
              <mxPoint x="151" y="470" />
            </Array>
          </mxGeometry>
        </mxCell>
        <mxCell id="p9xSU8n0x60PEv_NVzDk-25" style="edgeStyle=orthogonalEdgeStyle;rounded=0;orthogonalLoop=1;jettySize=auto;html=1;exitX=1;exitY=0.3333333333333333;exitDx=0;exitDy=0;exitPerimeter=0;entryX=0.5;entryY=0;entryDx=0;entryDy=0;endArrow=block;endFill=1;strokeColor=#000000;" edge="1" parent="1" source="6DhYLbE_D7j-6P8XjbPQ-1" target="p9xSU8n0x60PEv_NVzDk-24">
          <mxGeometry relative="1" as="geometry" />
        </mxCell>
        <mxCell id="p9xSU8n0x60PEv_NVzDk-27" style="edgeStyle=orthogonalEdgeStyle;rounded=0;orthogonalLoop=1;jettySize=auto;html=1;exitX=1;exitY=0.3333333333333333;exitDx=0;exitDy=0;exitPerimeter=0;endArrow=block;endFill=1;strokeColor=#000000;entryX=0;entryY=0.5;entryDx=0;entryDy=0;" edge="1" parent="1" source="6DhYLbE_D7j-6P8XjbPQ-1" target="p9xSU8n0x60PEv_NVzDk-26">
          <mxGeometry relative="1" as="geometry">
            <Array as="points">
              <mxPoint x="80" y="80" />
              <mxPoint x="80" y="185" />
            </Array>
          </mxGeometry>
        </mxCell>
        <mxCell id="6DhYLbE_D7j-6P8XjbPQ-1" value="Пользо&lt;br&gt;ватель" style="shape=umlActor;verticalLabelPosition=bottom;verticalAlign=top;html=1;" vertex="1" parent="1">
          <mxGeometry x="30" y="60" width="30" height="60" as="geometry" />
        </mxCell>
        <mxCell id="6DhYLbE_D7j-6P8XjbPQ-2" value="Просмотр списка&lt;br&gt;животных" style="ellipse;whiteSpace=wrap;html=1;fillColor=#dae8fc;strokeColor=#6c8ebf;" vertex="1" parent="1">
          <mxGeometry x="250" y="90" width="140" height="70" as="geometry" />
        </mxCell>
        <mxCell id="p9xSU8n0x60PEv_NVzDk-1" value="Просмотр информации о выбранном животном" style="ellipse;whiteSpace=wrap;html=1;fillColor=#dae8fc;strokeColor=#6c8ebf;" vertex="1" parent="1">
          <mxGeometry x="240" y="10" width="140" height="70" as="geometry" />
        </mxCell>
        <mxCell id="p9xSU8n0x60PEv_NVzDk-2" value="Редактирование информации &lt;br&gt;о животном" style="ellipse;whiteSpace=wrap;html=1;fillColor=#dae8fc;strokeColor=#6c8ebf;" vertex="1" parent="1">
          <mxGeometry x="130" y="350" width="140" height="70" as="geometry" />
        </mxCell>
        <mxCell id="p9xSU8n0x60PEv_NVzDk-3" value="Добавление нового животного" style="ellipse;whiteSpace=wrap;html=1;fillColor=#dae8fc;strokeColor=#6c8ebf;" vertex="1" parent="1">
          <mxGeometry x="430" y="350" width="140" height="70" as="geometry" />
        </mxCell>
        <mxCell id="p9xSU8n0x60PEv_NVzDk-4" value="Удаление животного" style="ellipse;whiteSpace=wrap;html=1;fillColor=#dae8fc;strokeColor=#6c8ebf;" vertex="1" parent="1">
          <mxGeometry x="280" y="350" width="140" height="70" as="geometry" />
        </mxCell>
        <mxCell id="p9xSU8n0x60PEv_NVzDk-12" value="Добавление нотификации" style="ellipse;whiteSpace=wrap;html=1;fillColor=#f8cecc;strokeColor=#b85450;" vertex="1" parent="1">
          <mxGeometry x="430" y="490" width="140" height="70" as="geometry" />
        </mxCell>
        <mxCell id="p9xSU8n0x60PEv_NVzDk-13" value="Удаление нотификации" style="ellipse;whiteSpace=wrap;html=1;fillColor=#f8cecc;strokeColor=#b85450;" vertex="1" parent="1">
          <mxGeometry x="280" y="490" width="140" height="70" as="geometry" />
        </mxCell>
        <mxCell id="p9xSU8n0x60PEv_NVzDk-14" value="Изменение нотификации" style="ellipse;whiteSpace=wrap;html=1;fillColor=#f8cecc;strokeColor=#b85450;" vertex="1" parent="1">
          <mxGeometry x="130" y="490" width="140" height="70" as="geometry" />
        </mxCell>
        <mxCell id="p9xSU8n0x60PEv_NVzDk-16" value="Include" style="endArrow=open;endSize=12;dashed=1;html=1;rounded=0;strokeColor=#000000;exitX=0.5;exitY=1;exitDx=0;exitDy=0;" edge="1" parent="1" source="p9xSU8n0x60PEv_NVzDk-2" target="p9xSU8n0x60PEv_NVzDk-14">
          <mxGeometry width="160" relative="1" as="geometry">
            <mxPoint x="230" y="620" as="sourcePoint" />
            <mxPoint x="390" y="620" as="targetPoint" />
            <Array as="points">
              <mxPoint x="200" y="460" />
            </Array>
          </mxGeometry>
        </mxCell>
        <mxCell id="p9xSU8n0x60PEv_NVzDk-17" value="Include" style="endArrow=open;endSize=12;dashed=1;html=1;rounded=0;strokeColor=#000000;exitX=0.5;exitY=1;exitDx=0;exitDy=0;entryX=0.5;entryY=0;entryDx=0;entryDy=0;" edge="1" parent="1" source="p9xSU8n0x60PEv_NVzDk-4" target="p9xSU8n0x60PEv_NVzDk-13">
          <mxGeometry width="160" relative="1" as="geometry">
            <mxPoint x="247" y="430" as="sourcePoint" />
            <mxPoint x="247" y="500" as="targetPoint" />
            <Array as="points" />
          </mxGeometry>
        </mxCell>
        <mxCell id="p9xSU8n0x60PEv_NVzDk-18" value="Include" style="endArrow=open;endSize=12;dashed=1;html=1;rounded=0;strokeColor=#000000;exitX=0.5;exitY=1;exitDx=0;exitDy=0;entryX=0.5;entryY=0;entryDx=0;entryDy=0;" edge="1" parent="1" source="p9xSU8n0x60PEv_NVzDk-3" target="p9xSU8n0x60PEv_NVzDk-12">
          <mxGeometry width="160" relative="1" as="geometry">
            <mxPoint x="220" y="440" as="sourcePoint" />
            <mxPoint x="220" y="510" as="targetPoint" />
            <Array as="points" />
          </mxGeometry>
        </mxCell>
        <mxCell id="p9xSU8n0x60PEv_NVzDk-21" style="edgeStyle=orthogonalEdgeStyle;rounded=0;orthogonalLoop=1;jettySize=auto;html=1;exitX=0;exitY=0.3333333333333333;exitDx=0;exitDy=0;exitPerimeter=0;entryX=0.5;entryY=1;entryDx=0;entryDy=0;endArrow=block;endFill=1;strokeColor=#000000;" edge="1" parent="1" source="p9xSU8n0x60PEv_NVzDk-20" target="p9xSU8n0x60PEv_NVzDk-14">
          <mxGeometry relative="1" as="geometry" />
        </mxCell>
        <mxCell id="p9xSU8n0x60PEv_NVzDk-22" style="edgeStyle=orthogonalEdgeStyle;rounded=0;orthogonalLoop=1;jettySize=auto;html=1;exitX=1;exitY=0.3333333333333333;exitDx=0;exitDy=0;exitPerimeter=0;entryX=0.5;entryY=1;entryDx=0;entryDy=0;endArrow=block;endFill=1;strokeColor=#000000;" edge="1" parent="1" source="p9xSU8n0x60PEv_NVzDk-20" target="p9xSU8n0x60PEv_NVzDk-12">
          <mxGeometry relative="1" as="geometry" />
        </mxCell>
        <mxCell id="p9xSU8n0x60PEv_NVzDk-23" style="edgeStyle=orthogonalEdgeStyle;rounded=0;orthogonalLoop=1;jettySize=auto;html=1;exitX=0.5;exitY=0;exitDx=0;exitDy=0;exitPerimeter=0;entryX=0.5;entryY=1;entryDx=0;entryDy=0;endArrow=block;endFill=1;strokeColor=#000000;" edge="1" parent="1" source="p9xSU8n0x60PEv_NVzDk-20" target="p9xSU8n0x60PEv_NVzDk-13">
          <mxGeometry relative="1" as="geometry">
            <Array as="points">
              <mxPoint x="350" y="620" />
            </Array>
          </mxGeometry>
        </mxCell>
        <mxCell id="p9xSU8n0x60PEv_NVzDk-29" style="edgeStyle=orthogonalEdgeStyle;rounded=0;orthogonalLoop=1;jettySize=auto;html=1;exitX=1;exitY=1;exitDx=0;exitDy=0;exitPerimeter=0;endArrow=block;endFill=1;strokeColor=#000000;entryX=0;entryY=0;entryDx=0;entryDy=0;" edge="1" parent="1" source="p9xSU8n0x60PEv_NVzDk-20" target="p9xSU8n0x60PEv_NVzDk-28">
          <mxGeometry relative="1" as="geometry">
            <Array as="points">
              <mxPoint x="466" y="680" />
            </Array>
          </mxGeometry>
        </mxCell>
        <mxCell id="p9xSU8n0x60PEv_NVzDk-20" value="NotificationService" style="shape=umlActor;verticalLabelPosition=bottom;verticalAlign=top;html=1;" vertex="1" parent="1">
          <mxGeometry x="330" y="620" width="30" height="60" as="geometry" />
        </mxCell>
        <mxCell id="p9xSU8n0x60PEv_NVzDk-24" value="Просмотр списка&lt;br&gt;нотификаций" style="ellipse;whiteSpace=wrap;html=1;fillColor=#f8cecc;strokeColor=#b85450;" vertex="1" parent="1">
          <mxGeometry x="10" y="580" width="140" height="70" as="geometry" />
        </mxCell>
        <mxCell id="p9xSU8n0x60PEv_NVzDk-26" value="Поиск животного в списке CITES" style="ellipse;whiteSpace=wrap;html=1;fillColor=#d5e8d4;strokeColor=#82b366;" vertex="1" parent="1">
          <mxGeometry x="470" y="150" width="140" height="70" as="geometry" />
        </mxCell>
        <mxCell id="p9xSU8n0x60PEv_NVzDk-28" value="Проверка необходимости нотификации" style="ellipse;whiteSpace=wrap;html=1;fillColor=#f8cecc;strokeColor=#b85450;" vertex="1" parent="1">
          <mxGeometry x="445" y="730" width="140" height="70" as="geometry" />
        </mxCell>
        <mxCell id="p9xSU8n0x60PEv_NVzDk-31" value="Уведомление пользователя" style="ellipse;whiteSpace=wrap;html=1;fillColor=#f8cecc;strokeColor=#b85450;" vertex="1" parent="1">
          <mxGeometry x="200" y="730" width="140" height="70" as="geometry" />
        </mxCell>
        <mxCell id="p9xSU8n0x60PEv_NVzDk-32" value="Extends" style="endArrow=block;endSize=16;endFill=0;html=1;rounded=0;strokeColor=#000000;exitX=1;exitY=0.5;exitDx=0;exitDy=0;entryX=0;entryY=0.5;entryDx=0;entryDy=0;" edge="1" parent="1" source="p9xSU8n0x60PEv_NVzDk-31" target="p9xSU8n0x60PEv_NVzDk-28">
          <mxGeometry width="160" relative="1" as="geometry">
            <mxPoint x="580" y="690" as="sourcePoint" />
            <mxPoint x="740" y="690" as="targetPoint" />
          </mxGeometry>
        </mxCell>
        <mxCell id="p9xSU8n0x60PEv_NVzDk-33" value="Extends" style="endArrow=block;endSize=16;endFill=0;html=1;rounded=0;strokeColor=#000000;exitX=0.5;exitY=1;exitDx=0;exitDy=0;entryX=0;entryY=0.5;entryDx=0;entryDy=0;" edge="1" parent="1" source="p9xSU8n0x60PEv_NVzDk-24" target="p9xSU8n0x60PEv_NVzDk-31">
          <mxGeometry width="160" relative="1" as="geometry">
            <mxPoint x="40" y="730" as="sourcePoint" />
            <mxPoint x="200" y="730" as="targetPoint" />
          </mxGeometry>
        </mxCell>
        <mxCell id="p9xSU8n0x60PEv_NVzDk-34" value="Extends" style="endArrow=block;endSize=16;endFill=0;html=1;rounded=0;strokeColor=#000000;exitX=0;exitY=1;exitDx=0;exitDy=0;" edge="1" parent="1" source="p9xSU8n0x60PEv_NVzDk-14" target="p9xSU8n0x60PEv_NVzDk-24">
          <mxGeometry x="-0.459" y="15" width="160" relative="1" as="geometry">
            <mxPoint x="50" y="770" as="sourcePoint" />
            <mxPoint x="210" y="770" as="targetPoint" />
            <mxPoint as="offset" />
          </mxGeometry>
        </mxCell>
        <mxCell id="p9xSU8n0x60PEv_NVzDk-36" value="AnimalService" style="rounded=1;whiteSpace=wrap;html=1;fillColor=#dae8fc;strokeColor=#6c8ebf;" vertex="1" parent="1">
          <mxGeometry x="750" y="30" width="120" height="60" as="geometry" />
        </mxCell>
        <mxCell id="p9xSU8n0x60PEv_NVzDk-37" value="CITESService" style="rounded=1;whiteSpace=wrap;html=1;fillColor=#d5e8d4;strokeColor=#82b366;" vertex="1" parent="1">
          <mxGeometry x="750" y="120" width="120" height="60" as="geometry" />
        </mxCell>
        <mxCell id="p9xSU8n0x60PEv_NVzDk-38" value="NotificationService" style="rounded=1;whiteSpace=wrap;html=1;fillColor=#f8cecc;strokeColor=#b85450;" vertex="1" parent="1">
          <mxGeometry x="750" y="219" width="120" height="60" as="geometry" />
        </mxCell>
      </root>
    </mxGraphModel>
  </diagram>
  <diagram id="R2lEEEUBdFMjLlhIrx00" name="ERD">
    <mxGraphModel dx="1038" dy="564" grid="1" gridSize="10" guides="1" tooltips="1" connect="1" arrows="1" fold="1" page="1" pageScale="1" pageWidth="850" pageHeight="1100" math="0" shadow="0" extFonts="Permanent Marker^https://fonts.googleapis.com/css?family=Permanent+Marker">
      <root>
        <mxCell id="0" />
        <mxCell id="1" parent="0" />
        <mxCell id="BkGIpbTy3kFoHIXGlHzy-105" value="CITES Service" style="swimlane;" parent="1" vertex="1">
          <mxGeometry x="50" y="430" width="650" height="440" as="geometry">
            <mxRectangle x="50" y="340" width="120" height="30" as="alternateBounds" />
          </mxGeometry>
        </mxCell>
        <mxCell id="BkGIpbTy3kFoHIXGlHzy-218" value="CITESAnimals" style="shape=table;startSize=30;container=1;collapsible=1;childLayout=tableLayout;fixedRows=1;rowLines=0;fontStyle=1;align=center;resizeLast=1;" parent="BkGIpbTy3kFoHIXGlHzy-105" vertex="1">
          <mxGeometry x="17.5" y="100" width="280" height="220" as="geometry" />
        </mxCell>
        <mxCell id="BkGIpbTy3kFoHIXGlHzy-219" value="" style="shape=tableRow;horizontal=0;startSize=0;swimlaneHead=0;swimlaneBody=0;fillColor=none;collapsible=0;dropTarget=0;points=[[0,0.5],[1,0.5]];portConstraint=eastwest;top=0;left=0;right=0;bottom=1;" parent="BkGIpbTy3kFoHIXGlHzy-218" vertex="1">
          <mxGeometry y="30" width="280" height="30" as="geometry" />
        </mxCell>
        <mxCell id="BkGIpbTy3kFoHIXGlHzy-220" value="PK" style="shape=partialRectangle;connectable=0;fillColor=none;top=0;left=0;bottom=0;right=0;fontStyle=1;overflow=hidden;" parent="BkGIpbTy3kFoHIXGlHzy-219" vertex="1">
          <mxGeometry width="30" height="30" as="geometry">
            <mxRectangle width="30" height="30" as="alternateBounds" />
          </mxGeometry>
        </mxCell>
        <mxCell id="BkGIpbTy3kFoHIXGlHzy-221" value="AnimalId INT4 NOT NULL" style="shape=partialRectangle;connectable=0;fillColor=none;top=0;left=0;bottom=0;right=0;align=left;spacingLeft=6;fontStyle=5;overflow=hidden;" parent="BkGIpbTy3kFoHIXGlHzy-219" vertex="1">
          <mxGeometry x="30" width="250" height="30" as="geometry">
            <mxRectangle width="250" height="30" as="alternateBounds" />
          </mxGeometry>
        </mxCell>
        <mxCell id="BkGIpbTy3kFoHIXGlHzy-222" value="" style="shape=tableRow;horizontal=0;startSize=0;swimlaneHead=0;swimlaneBody=0;fillColor=none;collapsible=0;dropTarget=0;points=[[0,0.5],[1,0.5]];portConstraint=eastwest;top=0;left=0;right=0;bottom=0;" parent="BkGIpbTy3kFoHIXGlHzy-218" vertex="1">
          <mxGeometry y="60" width="280" height="30" as="geometry" />
        </mxCell>
        <mxCell id="BkGIpbTy3kFoHIXGlHzy-223" value="" style="shape=partialRectangle;connectable=0;fillColor=none;top=0;left=0;bottom=0;right=0;editable=1;overflow=hidden;" parent="BkGIpbTy3kFoHIXGlHzy-222" vertex="1">
          <mxGeometry width="30" height="30" as="geometry">
            <mxRectangle width="30" height="30" as="alternateBounds" />
          </mxGeometry>
        </mxCell>
        <mxCell id="BkGIpbTy3kFoHIXGlHzy-224" value="AnimalName VARCHAR (256) NOT NULL" style="shape=partialRectangle;connectable=0;fillColor=none;top=0;left=0;bottom=0;right=0;align=left;spacingLeft=6;overflow=hidden;" parent="BkGIpbTy3kFoHIXGlHzy-222" vertex="1">
          <mxGeometry x="30" width="250" height="30" as="geometry">
            <mxRectangle width="250" height="30" as="alternateBounds" />
          </mxGeometry>
        </mxCell>
        <mxCell id="BkGIpbTy3kFoHIXGlHzy-225" value="" style="shape=tableRow;horizontal=0;startSize=0;swimlaneHead=0;swimlaneBody=0;fillColor=none;collapsible=0;dropTarget=0;points=[[0,0.5],[1,0.5]];portConstraint=eastwest;top=0;left=0;right=0;bottom=0;" parent="BkGIpbTy3kFoHIXGlHzy-218" vertex="1">
          <mxGeometry y="90" width="280" height="30" as="geometry" />
        </mxCell>
        <mxCell id="BkGIpbTy3kFoHIXGlHzy-226" value="" style="shape=partialRectangle;connectable=0;fillColor=none;top=0;left=0;bottom=0;right=0;editable=1;overflow=hidden;" parent="BkGIpbTy3kFoHIXGlHzy-225" vertex="1">
          <mxGeometry width="30" height="30" as="geometry">
            <mxRectangle width="30" height="30" as="alternateBounds" />
          </mxGeometry>
        </mxCell>
        <mxCell id="BkGIpbTy3kFoHIXGlHzy-227" value="AnimalLatName CHAR (256) NOT NULL" style="shape=partialRectangle;connectable=0;fillColor=none;top=0;left=0;bottom=0;right=0;align=left;spacingLeft=6;overflow=hidden;" parent="BkGIpbTy3kFoHIXGlHzy-225" vertex="1">
          <mxGeometry x="30" width="250" height="30" as="geometry">
            <mxRectangle width="250" height="30" as="alternateBounds" />
          </mxGeometry>
        </mxCell>
        <mxCell id="BkGIpbTy3kFoHIXGlHzy-228" value="" style="shape=tableRow;horizontal=0;startSize=0;swimlaneHead=0;swimlaneBody=0;fillColor=none;collapsible=0;dropTarget=0;points=[[0,0.5],[1,0.5]];portConstraint=eastwest;top=0;left=0;right=0;bottom=0;" parent="BkGIpbTy3kFoHIXGlHzy-218" vertex="1">
          <mxGeometry y="120" width="280" height="30" as="geometry" />
        </mxCell>
        <mxCell id="BkGIpbTy3kFoHIXGlHzy-229" value="FK" style="shape=partialRectangle;connectable=0;fillColor=none;top=0;left=0;bottom=0;right=0;editable=1;overflow=hidden;" parent="BkGIpbTy3kFoHIXGlHzy-228" vertex="1">
          <mxGeometry width="30" height="30" as="geometry">
            <mxRectangle width="30" height="30" as="alternateBounds" />
          </mxGeometry>
        </mxCell>
        <mxCell id="BkGIpbTy3kFoHIXGlHzy-230" value="DescriptorId INT4 NOT NULL" style="shape=partialRectangle;connectable=0;fillColor=none;top=0;left=0;bottom=0;right=0;align=left;spacingLeft=6;overflow=hidden;" parent="BkGIpbTy3kFoHIXGlHzy-228" vertex="1">
          <mxGeometry x="30" width="250" height="30" as="geometry">
            <mxRectangle width="250" height="30" as="alternateBounds" />
          </mxGeometry>
        </mxCell>
        <mxCell id="BkGIpbTy3kFoHIXGlHzy-231" style="shape=tableRow;horizontal=0;startSize=0;swimlaneHead=0;swimlaneBody=0;fillColor=none;collapsible=0;dropTarget=0;points=[[0,0.5],[1,0.5]];portConstraint=eastwest;top=0;left=0;right=0;bottom=0;" parent="BkGIpbTy3kFoHIXGlHzy-218" vertex="1">
          <mxGeometry y="150" width="280" height="30" as="geometry" />
        </mxCell>
        <mxCell id="BkGIpbTy3kFoHIXGlHzy-232" value="FK" style="shape=partialRectangle;connectable=0;fillColor=none;top=0;left=0;bottom=0;right=0;editable=1;overflow=hidden;" parent="BkGIpbTy3kFoHIXGlHzy-231" vertex="1">
          <mxGeometry width="30" height="30" as="geometry">
            <mxRectangle width="30" height="30" as="alternateBounds" />
          </mxGeometry>
        </mxCell>
        <mxCell id="BkGIpbTy3kFoHIXGlHzy-233" value="AppendixId INT4 NOT NULL" style="shape=partialRectangle;connectable=0;fillColor=none;top=0;left=0;bottom=0;right=0;align=left;spacingLeft=6;overflow=hidden;" parent="BkGIpbTy3kFoHIXGlHzy-231" vertex="1">
          <mxGeometry x="30" width="250" height="30" as="geometry">
            <mxRectangle width="250" height="30" as="alternateBounds" />
          </mxGeometry>
        </mxCell>
        <mxCell id="BkGIpbTy3kFoHIXGlHzy-234" style="shape=tableRow;horizontal=0;startSize=0;swimlaneHead=0;swimlaneBody=0;fillColor=none;collapsible=0;dropTarget=0;points=[[0,0.5],[1,0.5]];portConstraint=eastwest;top=0;left=0;right=0;bottom=0;" parent="BkGIpbTy3kFoHIXGlHzy-218" vertex="1">
          <mxGeometry y="180" width="280" height="30" as="geometry" />
        </mxCell>
        <mxCell id="BkGIpbTy3kFoHIXGlHzy-235" style="shape=partialRectangle;connectable=0;fillColor=none;top=0;left=0;bottom=0;right=0;editable=1;overflow=hidden;" parent="BkGIpbTy3kFoHIXGlHzy-234" vertex="1">
          <mxGeometry width="30" height="30" as="geometry">
            <mxRectangle width="30" height="30" as="alternateBounds" />
          </mxGeometry>
        </mxCell>
        <mxCell id="BkGIpbTy3kFoHIXGlHzy-236" value="Note VARCHAR (max)" style="shape=partialRectangle;connectable=0;fillColor=none;top=0;left=0;bottom=0;right=0;align=left;spacingLeft=6;overflow=hidden;" parent="BkGIpbTy3kFoHIXGlHzy-234" vertex="1">
          <mxGeometry x="30" width="250" height="30" as="geometry">
            <mxRectangle width="250" height="30" as="alternateBounds" />
          </mxGeometry>
        </mxCell>
        <mxCell id="BkGIpbTy3kFoHIXGlHzy-237" value="CITESDescriptors" style="shape=table;startSize=30;container=1;collapsible=1;childLayout=tableLayout;fixedRows=1;rowLines=0;fontStyle=1;align=center;resizeLast=1;" parent="BkGIpbTy3kFoHIXGlHzy-105" vertex="1">
          <mxGeometry x="362.5" y="70" width="270" height="160" as="geometry" />
        </mxCell>
        <mxCell id="BkGIpbTy3kFoHIXGlHzy-238" value="" style="shape=tableRow;horizontal=0;startSize=0;swimlaneHead=0;swimlaneBody=0;fillColor=none;collapsible=0;dropTarget=0;points=[[0,0.5],[1,0.5]];portConstraint=eastwest;top=0;left=0;right=0;bottom=1;" parent="BkGIpbTy3kFoHIXGlHzy-237" vertex="1">
          <mxGeometry y="30" width="270" height="30" as="geometry" />
        </mxCell>
        <mxCell id="BkGIpbTy3kFoHIXGlHzy-239" value="PK" style="shape=partialRectangle;connectable=0;fillColor=none;top=0;left=0;bottom=0;right=0;fontStyle=1;overflow=hidden;" parent="BkGIpbTy3kFoHIXGlHzy-238" vertex="1">
          <mxGeometry width="30" height="30" as="geometry">
            <mxRectangle width="30" height="30" as="alternateBounds" />
          </mxGeometry>
        </mxCell>
        <mxCell id="BkGIpbTy3kFoHIXGlHzy-240" value="DescriptorId INT4 NOT NULL" style="shape=partialRectangle;connectable=0;fillColor=none;top=0;left=0;bottom=0;right=0;align=left;spacingLeft=6;fontStyle=5;overflow=hidden;" parent="BkGIpbTy3kFoHIXGlHzy-238" vertex="1">
          <mxGeometry x="30" width="240" height="30" as="geometry">
            <mxRectangle width="240" height="30" as="alternateBounds" />
          </mxGeometry>
        </mxCell>
        <mxCell id="BkGIpbTy3kFoHIXGlHzy-241" value="" style="shape=tableRow;horizontal=0;startSize=0;swimlaneHead=0;swimlaneBody=0;fillColor=none;collapsible=0;dropTarget=0;points=[[0,0.5],[1,0.5]];portConstraint=eastwest;top=0;left=0;right=0;bottom=0;" parent="BkGIpbTy3kFoHIXGlHzy-237" vertex="1">
          <mxGeometry y="60" width="270" height="30" as="geometry" />
        </mxCell>
        <mxCell id="BkGIpbTy3kFoHIXGlHzy-242" value="" style="shape=partialRectangle;connectable=0;fillColor=none;top=0;left=0;bottom=0;right=0;editable=1;overflow=hidden;" parent="BkGIpbTy3kFoHIXGlHzy-241" vertex="1">
          <mxGeometry width="30" height="30" as="geometry">
            <mxRectangle width="30" height="30" as="alternateBounds" />
          </mxGeometry>
        </mxCell>
        <mxCell id="BkGIpbTy3kFoHIXGlHzy-243" value="DescriptorPrefix VARCHAR (10) NOT NULL" style="shape=partialRectangle;connectable=0;fillColor=none;top=0;left=0;bottom=0;right=0;align=left;spacingLeft=6;overflow=hidden;" parent="BkGIpbTy3kFoHIXGlHzy-241" vertex="1">
          <mxGeometry x="30" width="240" height="30" as="geometry">
            <mxRectangle width="240" height="30" as="alternateBounds" />
          </mxGeometry>
        </mxCell>
        <mxCell id="BkGIpbTy3kFoHIXGlHzy-244" value="" style="shape=tableRow;horizontal=0;startSize=0;swimlaneHead=0;swimlaneBody=0;fillColor=none;collapsible=0;dropTarget=0;points=[[0,0.5],[1,0.5]];portConstraint=eastwest;top=0;left=0;right=0;bottom=0;" parent="BkGIpbTy3kFoHIXGlHzy-237" vertex="1">
          <mxGeometry y="90" width="270" height="30" as="geometry" />
        </mxCell>
        <mxCell id="BkGIpbTy3kFoHIXGlHzy-245" value="" style="shape=partialRectangle;connectable=0;fillColor=none;top=0;left=0;bottom=0;right=0;editable=1;overflow=hidden;" parent="BkGIpbTy3kFoHIXGlHzy-244" vertex="1">
          <mxGeometry width="30" height="30" as="geometry">
            <mxRectangle width="30" height="30" as="alternateBounds" />
          </mxGeometry>
        </mxCell>
        <mxCell id="BkGIpbTy3kFoHIXGlHzy-246" value="DescriptorPostfix CHAR (5)" style="shape=partialRectangle;connectable=0;fillColor=none;top=0;left=0;bottom=0;right=0;align=left;spacingLeft=6;overflow=hidden;" parent="BkGIpbTy3kFoHIXGlHzy-244" vertex="1">
          <mxGeometry x="30" width="240" height="30" as="geometry">
            <mxRectangle width="240" height="30" as="alternateBounds" />
          </mxGeometry>
        </mxCell>
        <mxCell id="BkGIpbTy3kFoHIXGlHzy-247" style="shape=tableRow;horizontal=0;startSize=0;swimlaneHead=0;swimlaneBody=0;fillColor=none;collapsible=0;dropTarget=0;points=[[0,0.5],[1,0.5]];portConstraint=eastwest;top=0;left=0;right=0;bottom=0;" parent="BkGIpbTy3kFoHIXGlHzy-237" vertex="1">
          <mxGeometry y="120" width="270" height="30" as="geometry" />
        </mxCell>
        <mxCell id="BkGIpbTy3kFoHIXGlHzy-248" style="shape=partialRectangle;connectable=0;fillColor=none;top=0;left=0;bottom=0;right=0;editable=1;overflow=hidden;" parent="BkGIpbTy3kFoHIXGlHzy-247" vertex="1">
          <mxGeometry width="30" height="30" as="geometry">
            <mxRectangle width="30" height="30" as="alternateBounds" />
          </mxGeometry>
        </mxCell>
        <mxCell id="BkGIpbTy3kFoHIXGlHzy-249" value="DescriptorName CHAR (10)" style="shape=partialRectangle;connectable=0;fillColor=none;top=0;left=0;bottom=0;right=0;align=left;spacingLeft=6;overflow=hidden;" parent="BkGIpbTy3kFoHIXGlHzy-247" vertex="1">
          <mxGeometry x="30" width="240" height="30" as="geometry">
            <mxRectangle width="240" height="30" as="alternateBounds" />
          </mxGeometry>
        </mxCell>
        <mxCell id="BkGIpbTy3kFoHIXGlHzy-250" value="CITESAppendix" style="shape=table;startSize=30;container=1;collapsible=1;childLayout=tableLayout;fixedRows=1;rowLines=0;fontStyle=1;align=center;resizeLast=1;" parent="BkGIpbTy3kFoHIXGlHzy-105" vertex="1">
          <mxGeometry x="375" y="260" width="245" height="160" as="geometry" />
        </mxCell>
        <mxCell id="BkGIpbTy3kFoHIXGlHzy-251" value="" style="shape=tableRow;horizontal=0;startSize=0;swimlaneHead=0;swimlaneBody=0;fillColor=none;collapsible=0;dropTarget=0;points=[[0,0.5],[1,0.5]];portConstraint=eastwest;top=0;left=0;right=0;bottom=1;" parent="BkGIpbTy3kFoHIXGlHzy-250" vertex="1">
          <mxGeometry y="30" width="245" height="30" as="geometry" />
        </mxCell>
        <mxCell id="BkGIpbTy3kFoHIXGlHzy-252" value="PK" style="shape=partialRectangle;connectable=0;fillColor=none;top=0;left=0;bottom=0;right=0;fontStyle=1;overflow=hidden;" parent="BkGIpbTy3kFoHIXGlHzy-251" vertex="1">
          <mxGeometry width="30" height="30" as="geometry">
            <mxRectangle width="30" height="30" as="alternateBounds" />
          </mxGeometry>
        </mxCell>
        <mxCell id="BkGIpbTy3kFoHIXGlHzy-253" value="AppendixId INT4 NOT NULL" style="shape=partialRectangle;connectable=0;fillColor=none;top=0;left=0;bottom=0;right=0;align=left;spacingLeft=6;fontStyle=5;overflow=hidden;" parent="BkGIpbTy3kFoHIXGlHzy-251" vertex="1">
          <mxGeometry x="30" width="215" height="30" as="geometry">
            <mxRectangle width="215" height="30" as="alternateBounds" />
          </mxGeometry>
        </mxCell>
        <mxCell id="BkGIpbTy3kFoHIXGlHzy-254" value="" style="shape=tableRow;horizontal=0;startSize=0;swimlaneHead=0;swimlaneBody=0;fillColor=none;collapsible=0;dropTarget=0;points=[[0,0.5],[1,0.5]];portConstraint=eastwest;top=0;left=0;right=0;bottom=0;" parent="BkGIpbTy3kFoHIXGlHzy-250" vertex="1">
          <mxGeometry y="60" width="245" height="30" as="geometry" />
        </mxCell>
        <mxCell id="BkGIpbTy3kFoHIXGlHzy-255" value="" style="shape=partialRectangle;connectable=0;fillColor=none;top=0;left=0;bottom=0;right=0;editable=1;overflow=hidden;" parent="BkGIpbTy3kFoHIXGlHzy-254" vertex="1">
          <mxGeometry width="30" height="30" as="geometry">
            <mxRectangle width="30" height="30" as="alternateBounds" />
          </mxGeometry>
        </mxCell>
        <mxCell id="BkGIpbTy3kFoHIXGlHzy-256" value="AppendixName VARCHAR (25)" style="shape=partialRectangle;connectable=0;fillColor=none;top=0;left=0;bottom=0;right=0;align=left;spacingLeft=6;overflow=hidden;" parent="BkGIpbTy3kFoHIXGlHzy-254" vertex="1">
          <mxGeometry x="30" width="215" height="30" as="geometry">
            <mxRectangle width="215" height="30" as="alternateBounds" />
          </mxGeometry>
        </mxCell>
        <mxCell id="BkGIpbTy3kFoHIXGlHzy-257" value="" style="shape=tableRow;horizontal=0;startSize=0;swimlaneHead=0;swimlaneBody=0;fillColor=none;collapsible=0;dropTarget=0;points=[[0,0.5],[1,0.5]];portConstraint=eastwest;top=0;left=0;right=0;bottom=0;" parent="BkGIpbTy3kFoHIXGlHzy-250" vertex="1">
          <mxGeometry y="90" width="245" height="30" as="geometry" />
        </mxCell>
        <mxCell id="BkGIpbTy3kFoHIXGlHzy-258" value="" style="shape=partialRectangle;connectable=0;fillColor=none;top=0;left=0;bottom=0;right=0;editable=1;overflow=hidden;" parent="BkGIpbTy3kFoHIXGlHzy-257" vertex="1">
          <mxGeometry width="30" height="30" as="geometry">
            <mxRectangle width="30" height="30" as="alternateBounds" />
          </mxGeometry>
        </mxCell>
        <mxCell id="BkGIpbTy3kFoHIXGlHzy-259" value="AppendixShortName CHAR (3)" style="shape=partialRectangle;connectable=0;fillColor=none;top=0;left=0;bottom=0;right=0;align=left;spacingLeft=6;overflow=hidden;" parent="BkGIpbTy3kFoHIXGlHzy-257" vertex="1">
          <mxGeometry x="30" width="215" height="30" as="geometry">
            <mxRectangle width="215" height="30" as="alternateBounds" />
          </mxGeometry>
        </mxCell>
        <mxCell id="BkGIpbTy3kFoHIXGlHzy-260" value="" style="shape=tableRow;horizontal=0;startSize=0;swimlaneHead=0;swimlaneBody=0;fillColor=none;collapsible=0;dropTarget=0;points=[[0,0.5],[1,0.5]];portConstraint=eastwest;top=0;left=0;right=0;bottom=0;" parent="BkGIpbTy3kFoHIXGlHzy-250" vertex="1">
          <mxGeometry y="120" width="245" height="30" as="geometry" />
        </mxCell>
        <mxCell id="BkGIpbTy3kFoHIXGlHzy-261" value="" style="shape=partialRectangle;connectable=0;fillColor=none;top=0;left=0;bottom=0;right=0;editable=1;overflow=hidden;" parent="BkGIpbTy3kFoHIXGlHzy-260" vertex="1">
          <mxGeometry width="30" height="30" as="geometry">
            <mxRectangle width="30" height="30" as="alternateBounds" />
          </mxGeometry>
        </mxCell>
        <mxCell id="BkGIpbTy3kFoHIXGlHzy-262" value="Note VARCHAR (max)" style="shape=partialRectangle;connectable=0;fillColor=none;top=0;left=0;bottom=0;right=0;align=left;spacingLeft=6;overflow=hidden;" parent="BkGIpbTy3kFoHIXGlHzy-260" vertex="1">
          <mxGeometry x="30" width="215" height="30" as="geometry">
            <mxRectangle width="215" height="30" as="alternateBounds" />
          </mxGeometry>
        </mxCell>
        <mxCell id="BkGIpbTy3kFoHIXGlHzy-263" value="" style="edgeStyle=entityRelationEdgeStyle;fontSize=12;html=1;endArrow=ERoneToMany;rounded=0;exitX=0;exitY=0.5;exitDx=0;exitDy=0;entryX=1;entryY=0.5;entryDx=0;entryDy=0;" parent="BkGIpbTy3kFoHIXGlHzy-105" source="BkGIpbTy3kFoHIXGlHzy-238" target="BkGIpbTy3kFoHIXGlHzy-228" edge="1">
          <mxGeometry width="100" height="100" relative="1" as="geometry">
            <mxPoint x="157.5" y="460" as="sourcePoint" />
            <mxPoint x="257.5" y="360" as="targetPoint" />
          </mxGeometry>
        </mxCell>
        <mxCell id="BkGIpbTy3kFoHIXGlHzy-264" value="" style="edgeStyle=entityRelationEdgeStyle;fontSize=12;html=1;endArrow=ERoneToMany;rounded=0;exitX=0;exitY=0.5;exitDx=0;exitDy=0;entryX=1;entryY=0.5;entryDx=0;entryDy=0;" parent="BkGIpbTy3kFoHIXGlHzy-105" source="BkGIpbTy3kFoHIXGlHzy-251" target="BkGIpbTy3kFoHIXGlHzy-231" edge="1">
          <mxGeometry width="100" height="100" relative="1" as="geometry">
            <mxPoint x="502.5" y="350" as="sourcePoint" />
            <mxPoint x="437.5" y="470" as="targetPoint" />
          </mxGeometry>
        </mxCell>
        <mxCell id="BkGIpbTy3kFoHIXGlHzy-268" value="Animals Service" style="swimlane;" parent="1" vertex="1">
          <mxGeometry x="50" y="40" width="310" height="340" as="geometry">
            <mxRectangle x="50" y="40" width="130" height="30" as="alternateBounds" />
          </mxGeometry>
        </mxCell>
        <mxCell id="C-vyLk0tnHw3VtMMgP7b-23" value="Animals" style="shape=table;startSize=30;container=1;collapsible=1;childLayout=tableLayout;fixedRows=1;rowLines=0;fontStyle=1;align=center;resizeLast=1;" parent="BkGIpbTy3kFoHIXGlHzy-268" vertex="1">
          <mxGeometry x="30" y="40" width="250" height="270" as="geometry" />
        </mxCell>
        <mxCell id="C-vyLk0tnHw3VtMMgP7b-24" value="" style="shape=partialRectangle;collapsible=0;dropTarget=0;pointerEvents=0;fillColor=none;points=[[0,0.5],[1,0.5]];portConstraint=eastwest;top=0;left=0;right=0;bottom=1;" parent="C-vyLk0tnHw3VtMMgP7b-23" vertex="1">
          <mxGeometry y="30" width="250" height="30" as="geometry" />
        </mxCell>
        <mxCell id="C-vyLk0tnHw3VtMMgP7b-25" value="PK" style="shape=partialRectangle;overflow=hidden;connectable=0;fillColor=none;top=0;left=0;bottom=0;right=0;fontStyle=1;" parent="C-vyLk0tnHw3VtMMgP7b-24" vertex="1">
          <mxGeometry width="30" height="30" as="geometry">
            <mxRectangle width="30" height="30" as="alternateBounds" />
          </mxGeometry>
        </mxCell>
        <mxCell id="C-vyLk0tnHw3VtMMgP7b-26" value="AnimalId int4 NOT NULL " style="shape=partialRectangle;overflow=hidden;connectable=0;fillColor=none;top=0;left=0;bottom=0;right=0;align=left;spacingLeft=6;fontStyle=5;" parent="C-vyLk0tnHw3VtMMgP7b-24" vertex="1">
          <mxGeometry x="30" width="220" height="30" as="geometry">
            <mxRectangle width="220" height="30" as="alternateBounds" />
          </mxGeometry>
        </mxCell>
        <mxCell id="C-vyLk0tnHw3VtMMgP7b-27" value="" style="shape=partialRectangle;collapsible=0;dropTarget=0;pointerEvents=0;fillColor=none;points=[[0,0.5],[1,0.5]];portConstraint=eastwest;top=0;left=0;right=0;bottom=0;" parent="C-vyLk0tnHw3VtMMgP7b-23" vertex="1">
          <mxGeometry y="60" width="250" height="30" as="geometry" />
        </mxCell>
        <mxCell id="C-vyLk0tnHw3VtMMgP7b-28" value="" style="shape=partialRectangle;overflow=hidden;connectable=0;fillColor=none;top=0;left=0;bottom=0;right=0;" parent="C-vyLk0tnHw3VtMMgP7b-27" vertex="1">
          <mxGeometry width="30" height="30" as="geometry">
            <mxRectangle width="30" height="30" as="alternateBounds" />
          </mxGeometry>
        </mxCell>
        <mxCell id="C-vyLk0tnHw3VtMMgP7b-29" value="AnimalName varchar(50) NOT NULL" style="shape=partialRectangle;overflow=hidden;connectable=0;fillColor=none;top=0;left=0;bottom=0;right=0;align=left;spacingLeft=6;" parent="C-vyLk0tnHw3VtMMgP7b-27" vertex="1">
          <mxGeometry x="30" width="220" height="30" as="geometry">
            <mxRectangle width="220" height="30" as="alternateBounds" />
          </mxGeometry>
        </mxCell>
        <mxCell id="0EHANF2xvQlgQ6-XzLyw-1" style="shape=partialRectangle;collapsible=0;dropTarget=0;pointerEvents=0;fillColor=none;points=[[0,0.5],[1,0.5]];portConstraint=eastwest;top=0;left=0;right=0;bottom=0;" parent="C-vyLk0tnHw3VtMMgP7b-23" vertex="1">
          <mxGeometry y="90" width="250" height="30" as="geometry" />
        </mxCell>
        <mxCell id="0EHANF2xvQlgQ6-XzLyw-2" style="shape=partialRectangle;overflow=hidden;connectable=0;fillColor=none;top=0;left=0;bottom=0;right=0;" parent="0EHANF2xvQlgQ6-XzLyw-1" vertex="1">
          <mxGeometry width="30" height="30" as="geometry">
            <mxRectangle width="30" height="30" as="alternateBounds" />
          </mxGeometry>
        </mxCell>
        <mxCell id="0EHANF2xvQlgQ6-XzLyw-3" value="AnimalAge int2 NOT NULL" style="shape=partialRectangle;overflow=hidden;connectable=0;fillColor=none;top=0;left=0;bottom=0;right=0;align=left;spacingLeft=6;" parent="0EHANF2xvQlgQ6-XzLyw-1" vertex="1">
          <mxGeometry x="30" width="220" height="30" as="geometry">
            <mxRectangle width="220" height="30" as="alternateBounds" />
          </mxGeometry>
        </mxCell>
        <mxCell id="0EHANF2xvQlgQ6-XzLyw-4" style="shape=partialRectangle;collapsible=0;dropTarget=0;pointerEvents=0;fillColor=none;points=[[0,0.5],[1,0.5]];portConstraint=eastwest;top=0;left=0;right=0;bottom=0;" parent="C-vyLk0tnHw3VtMMgP7b-23" vertex="1">
          <mxGeometry y="120" width="250" height="30" as="geometry" />
        </mxCell>
        <mxCell id="0EHANF2xvQlgQ6-XzLyw-5" style="shape=partialRectangle;overflow=hidden;connectable=0;fillColor=none;top=0;left=0;bottom=0;right=0;" parent="0EHANF2xvQlgQ6-XzLyw-4" vertex="1">
          <mxGeometry width="30" height="30" as="geometry">
            <mxRectangle width="30" height="30" as="alternateBounds" />
          </mxGeometry>
        </mxCell>
        <mxCell id="0EHANF2xvQlgQ6-XzLyw-6" value="AnimalSex bool" style="shape=partialRectangle;overflow=hidden;connectable=0;fillColor=none;top=0;left=0;bottom=0;right=0;align=left;spacingLeft=6;" parent="0EHANF2xvQlgQ6-XzLyw-4" vertex="1">
          <mxGeometry x="30" width="220" height="30" as="geometry">
            <mxRectangle width="220" height="30" as="alternateBounds" />
          </mxGeometry>
        </mxCell>
        <mxCell id="0EHANF2xvQlgQ6-XzLyw-7" style="shape=partialRectangle;collapsible=0;dropTarget=0;pointerEvents=0;fillColor=none;points=[[0,0.5],[1,0.5]];portConstraint=eastwest;top=0;left=0;right=0;bottom=0;" parent="C-vyLk0tnHw3VtMMgP7b-23" vertex="1">
          <mxGeometry y="150" width="250" height="30" as="geometry" />
        </mxCell>
        <mxCell id="0EHANF2xvQlgQ6-XzLyw-8" style="shape=partialRectangle;overflow=hidden;connectable=0;fillColor=none;top=0;left=0;bottom=0;right=0;" parent="0EHANF2xvQlgQ6-XzLyw-7" vertex="1">
          <mxGeometry width="30" height="30" as="geometry">
            <mxRectangle width="30" height="30" as="alternateBounds" />
          </mxGeometry>
        </mxCell>
        <mxCell id="0EHANF2xvQlgQ6-XzLyw-9" value="AnimalType varchar(256) NOT NULL" style="shape=partialRectangle;overflow=hidden;connectable=0;fillColor=none;top=0;left=0;bottom=0;right=0;align=left;spacingLeft=6;" parent="0EHANF2xvQlgQ6-XzLyw-7" vertex="1">
          <mxGeometry x="30" width="220" height="30" as="geometry">
            <mxRectangle width="220" height="30" as="alternateBounds" />
          </mxGeometry>
        </mxCell>
        <mxCell id="0EHANF2xvQlgQ6-XzLyw-10" style="shape=partialRectangle;collapsible=0;dropTarget=0;pointerEvents=0;fillColor=none;points=[[0,0.5],[1,0.5]];portConstraint=eastwest;top=0;left=0;right=0;bottom=0;" parent="C-vyLk0tnHw3VtMMgP7b-23" vertex="1">
          <mxGeometry y="180" width="250" height="30" as="geometry" />
        </mxCell>
        <mxCell id="0EHANF2xvQlgQ6-XzLyw-11" style="shape=partialRectangle;overflow=hidden;connectable=0;fillColor=none;top=0;left=0;bottom=0;right=0;" parent="0EHANF2xvQlgQ6-XzLyw-10" vertex="1">
          <mxGeometry width="30" height="30" as="geometry">
            <mxRectangle width="30" height="30" as="alternateBounds" />
          </mxGeometry>
        </mxCell>
        <mxCell id="0EHANF2xvQlgQ6-XzLyw-12" value="LastFeedingDate date NOT NULL" style="shape=partialRectangle;overflow=hidden;connectable=0;fillColor=none;top=0;left=0;bottom=0;right=0;align=left;spacingLeft=6;" parent="0EHANF2xvQlgQ6-XzLyw-10" vertex="1">
          <mxGeometry x="30" width="220" height="30" as="geometry">
            <mxRectangle width="220" height="30" as="alternateBounds" />
          </mxGeometry>
        </mxCell>
        <mxCell id="0EHANF2xvQlgQ6-XzLyw-16" style="shape=partialRectangle;collapsible=0;dropTarget=0;pointerEvents=0;fillColor=none;points=[[0,0.5],[1,0.5]];portConstraint=eastwest;top=0;left=0;right=0;bottom=0;" parent="C-vyLk0tnHw3VtMMgP7b-23" vertex="1">
          <mxGeometry y="210" width="250" height="30" as="geometry" />
        </mxCell>
        <mxCell id="0EHANF2xvQlgQ6-XzLyw-17" style="shape=partialRectangle;overflow=hidden;connectable=0;fillColor=none;top=0;left=0;bottom=0;right=0;" parent="0EHANF2xvQlgQ6-XzLyw-16" vertex="1">
          <mxGeometry width="30" height="30" as="geometry">
            <mxRectangle width="30" height="30" as="alternateBounds" />
          </mxGeometry>
        </mxCell>
        <mxCell id="0EHANF2xvQlgQ6-XzLyw-18" value="LastMoltingDate date" style="shape=partialRectangle;overflow=hidden;connectable=0;fillColor=none;top=0;left=0;bottom=0;right=0;align=left;spacingLeft=6;" parent="0EHANF2xvQlgQ6-XzLyw-16" vertex="1">
          <mxGeometry x="30" width="220" height="30" as="geometry">
            <mxRectangle width="220" height="30" as="alternateBounds" />
          </mxGeometry>
        </mxCell>
        <mxCell id="BkGIpbTy3kFoHIXGlHzy-265" style="shape=partialRectangle;collapsible=0;dropTarget=0;pointerEvents=0;fillColor=none;points=[[0,0.5],[1,0.5]];portConstraint=eastwest;top=0;left=0;right=0;bottom=0;" parent="C-vyLk0tnHw3VtMMgP7b-23" vertex="1">
          <mxGeometry y="240" width="250" height="30" as="geometry" />
        </mxCell>
        <mxCell id="BkGIpbTy3kFoHIXGlHzy-266" style="shape=partialRectangle;overflow=hidden;connectable=0;fillColor=none;top=0;left=0;bottom=0;right=0;" parent="BkGIpbTy3kFoHIXGlHzy-265" vertex="1">
          <mxGeometry width="30" height="30" as="geometry">
            <mxRectangle width="30" height="30" as="alternateBounds" />
          </mxGeometry>
        </mxCell>
        <mxCell id="BkGIpbTy3kFoHIXGlHzy-267" value="Image bytea" style="shape=partialRectangle;overflow=hidden;connectable=0;fillColor=none;top=0;left=0;bottom=0;right=0;align=left;spacingLeft=6;" parent="BkGIpbTy3kFoHIXGlHzy-265" vertex="1">
          <mxGeometry x="30" width="220" height="30" as="geometry">
            <mxRectangle width="220" height="30" as="alternateBounds" />
          </mxGeometry>
        </mxCell>
        <mxCell id="BkGIpbTy3kFoHIXGlHzy-269" value="Notification Service" style="swimlane;" parent="1" vertex="1">
          <mxGeometry x="450" y="40" width="320" height="305" as="geometry">
            <mxRectangle x="450" y="40" width="150" height="30" as="alternateBounds" />
          </mxGeometry>
        </mxCell>
        <mxCell id="C-vyLk0tnHw3VtMMgP7b-2" value="Notifications" style="shape=table;startSize=30;container=1;collapsible=1;childLayout=tableLayout;fixedRows=1;rowLines=0;fontStyle=1;align=center;resizeLast=1;" parent="BkGIpbTy3kFoHIXGlHzy-269" vertex="1">
          <mxGeometry x="15" y="45" width="290" height="240" as="geometry">
            <mxRectangle x="470" y="490" width="160" height="60" as="alternateBounds" />
          </mxGeometry>
        </mxCell>
        <mxCell id="C-vyLk0tnHw3VtMMgP7b-3" value="" style="shape=partialRectangle;collapsible=0;dropTarget=0;pointerEvents=0;fillColor=none;points=[[0,0.5],[1,0.5]];portConstraint=eastwest;top=0;left=0;right=0;bottom=1;" parent="C-vyLk0tnHw3VtMMgP7b-2" vertex="1">
          <mxGeometry y="30" width="290" height="30" as="geometry" />
        </mxCell>
        <mxCell id="C-vyLk0tnHw3VtMMgP7b-4" value="PK" style="shape=partialRectangle;overflow=hidden;connectable=0;fillColor=none;top=0;left=0;bottom=0;right=0;fontStyle=1;" parent="C-vyLk0tnHw3VtMMgP7b-3" vertex="1">
          <mxGeometry width="30" height="30" as="geometry">
            <mxRectangle width="30" height="30" as="alternateBounds" />
          </mxGeometry>
        </mxCell>
        <mxCell id="C-vyLk0tnHw3VtMMgP7b-5" value="NotificationId int4 NOT NULL " style="shape=partialRectangle;overflow=hidden;connectable=0;fillColor=none;top=0;left=0;bottom=0;right=0;align=left;spacingLeft=6;fontStyle=5;" parent="C-vyLk0tnHw3VtMMgP7b-3" vertex="1">
          <mxGeometry x="30" width="260" height="30" as="geometry">
            <mxRectangle width="260" height="30" as="alternateBounds" />
          </mxGeometry>
        </mxCell>
        <mxCell id="C-vyLk0tnHw3VtMMgP7b-6" value="" style="shape=partialRectangle;collapsible=0;dropTarget=0;pointerEvents=0;fillColor=none;points=[[0,0.5],[1,0.5]];portConstraint=eastwest;top=0;left=0;right=0;bottom=0;" parent="C-vyLk0tnHw3VtMMgP7b-2" vertex="1">
          <mxGeometry y="60" width="290" height="30" as="geometry" />
        </mxCell>
        <mxCell id="C-vyLk0tnHw3VtMMgP7b-7" value="" style="shape=partialRectangle;overflow=hidden;connectable=0;fillColor=none;top=0;left=0;bottom=0;right=0;" parent="C-vyLk0tnHw3VtMMgP7b-6" vertex="1">
          <mxGeometry width="30" height="30" as="geometry">
            <mxRectangle width="30" height="30" as="alternateBounds" />
          </mxGeometry>
        </mxCell>
        <mxCell id="C-vyLk0tnHw3VtMMgP7b-8" value="AnimalId int4 NOT NULL UNIQUE" style="shape=partialRectangle;overflow=hidden;connectable=0;fillColor=none;top=0;left=0;bottom=0;right=0;align=left;spacingLeft=6;" parent="C-vyLk0tnHw3VtMMgP7b-6" vertex="1">
          <mxGeometry x="30" width="260" height="30" as="geometry">
            <mxRectangle width="260" height="30" as="alternateBounds" />
          </mxGeometry>
        </mxCell>
        <mxCell id="C-vyLk0tnHw3VtMMgP7b-9" value="" style="shape=partialRectangle;collapsible=0;dropTarget=0;pointerEvents=0;fillColor=none;points=[[0,0.5],[1,0.5]];portConstraint=eastwest;top=0;left=0;right=0;bottom=0;" parent="C-vyLk0tnHw3VtMMgP7b-2" vertex="1">
          <mxGeometry y="90" width="290" height="30" as="geometry" />
        </mxCell>
        <mxCell id="C-vyLk0tnHw3VtMMgP7b-10" value="" style="shape=partialRectangle;overflow=hidden;connectable=0;fillColor=none;top=0;left=0;bottom=0;right=0;" parent="C-vyLk0tnHw3VtMMgP7b-9" vertex="1">
          <mxGeometry width="30" height="30" as="geometry">
            <mxRectangle width="30" height="30" as="alternateBounds" />
          </mxGeometry>
        </mxCell>
        <mxCell id="C-vyLk0tnHw3VtMMgP7b-11" value="NotificationMessage varchar(256) NOT NULL" style="shape=partialRectangle;overflow=hidden;connectable=0;fillColor=none;top=0;left=0;bottom=0;right=0;align=left;spacingLeft=6;" parent="C-vyLk0tnHw3VtMMgP7b-9" vertex="1">
          <mxGeometry x="30" width="260" height="30" as="geometry">
            <mxRectangle width="260" height="30" as="alternateBounds" />
          </mxGeometry>
        </mxCell>
        <mxCell id="0EHANF2xvQlgQ6-XzLyw-19" style="shape=partialRectangle;collapsible=0;dropTarget=0;pointerEvents=0;fillColor=none;points=[[0,0.5],[1,0.5]];portConstraint=eastwest;top=0;left=0;right=0;bottom=0;" parent="C-vyLk0tnHw3VtMMgP7b-2" vertex="1">
          <mxGeometry y="120" width="290" height="30" as="geometry" />
        </mxCell>
        <mxCell id="0EHANF2xvQlgQ6-XzLyw-20" style="shape=partialRectangle;overflow=hidden;connectable=0;fillColor=none;top=0;left=0;bottom=0;right=0;" parent="0EHANF2xvQlgQ6-XzLyw-19" vertex="1">
          <mxGeometry width="30" height="30" as="geometry">
            <mxRectangle width="30" height="30" as="alternateBounds" />
          </mxGeometry>
        </mxCell>
        <mxCell id="0EHANF2xvQlgQ6-XzLyw-21" value="NotificationDate date NOT NULL" style="shape=partialRectangle;overflow=hidden;connectable=0;fillColor=none;top=0;left=0;bottom=0;right=0;align=left;spacingLeft=6;" parent="0EHANF2xvQlgQ6-XzLyw-19" vertex="1">
          <mxGeometry x="30" width="260" height="30" as="geometry">
            <mxRectangle width="260" height="30" as="alternateBounds" />
          </mxGeometry>
        </mxCell>
        <mxCell id="0EHANF2xvQlgQ6-XzLyw-22" style="shape=partialRectangle;collapsible=0;dropTarget=0;pointerEvents=0;fillColor=none;points=[[0,0.5],[1,0.5]];portConstraint=eastwest;top=0;left=0;right=0;bottom=0;" parent="C-vyLk0tnHw3VtMMgP7b-2" vertex="1">
          <mxGeometry y="150" width="290" height="30" as="geometry" />
        </mxCell>
        <mxCell id="0EHANF2xvQlgQ6-XzLyw-23" style="shape=partialRectangle;overflow=hidden;connectable=0;fillColor=none;top=0;left=0;bottom=0;right=0;" parent="0EHANF2xvQlgQ6-XzLyw-22" vertex="1">
          <mxGeometry width="30" height="30" as="geometry">
            <mxRectangle width="30" height="30" as="alternateBounds" />
          </mxGeometry>
        </mxCell>
        <mxCell id="0EHANF2xvQlgQ6-XzLyw-24" value="NotificationPeriod int2 NOT NULL" style="shape=partialRectangle;overflow=hidden;connectable=0;fillColor=none;top=0;left=0;bottom=0;right=0;align=left;spacingLeft=6;" parent="0EHANF2xvQlgQ6-XzLyw-22" vertex="1">
          <mxGeometry x="30" width="260" height="30" as="geometry">
            <mxRectangle width="260" height="30" as="alternateBounds" />
          </mxGeometry>
        </mxCell>
        <mxCell id="0EHANF2xvQlgQ6-XzLyw-25" style="shape=partialRectangle;collapsible=0;dropTarget=0;pointerEvents=0;fillColor=none;points=[[0,0.5],[1,0.5]];portConstraint=eastwest;top=0;left=0;right=0;bottom=0;" parent="C-vyLk0tnHw3VtMMgP7b-2" vertex="1">
          <mxGeometry y="180" width="290" height="30" as="geometry" />
        </mxCell>
        <mxCell id="0EHANF2xvQlgQ6-XzLyw-26" style="shape=partialRectangle;overflow=hidden;connectable=0;fillColor=none;top=0;left=0;bottom=0;right=0;" parent="0EHANF2xvQlgQ6-XzLyw-25" vertex="1">
          <mxGeometry width="30" height="30" as="geometry">
            <mxRectangle width="30" height="30" as="alternateBounds" />
          </mxGeometry>
        </mxCell>
        <mxCell id="0EHANF2xvQlgQ6-XzLyw-27" value="IsConfirmed bool NOT NULL" style="shape=partialRectangle;overflow=hidden;connectable=0;fillColor=none;top=0;left=0;bottom=0;right=0;align=left;spacingLeft=6;" parent="0EHANF2xvQlgQ6-XzLyw-25" vertex="1">
          <mxGeometry x="30" width="260" height="30" as="geometry">
            <mxRectangle width="260" height="30" as="alternateBounds" />
          </mxGeometry>
        </mxCell>
        <mxCell id="0EHANF2xvQlgQ6-XzLyw-34" style="shape=partialRectangle;collapsible=0;dropTarget=0;pointerEvents=0;fillColor=none;points=[[0,0.5],[1,0.5]];portConstraint=eastwest;top=0;left=0;right=0;bottom=0;" parent="C-vyLk0tnHw3VtMMgP7b-2" vertex="1">
          <mxGeometry y="210" width="290" height="30" as="geometry" />
        </mxCell>
        <mxCell id="0EHANF2xvQlgQ6-XzLyw-35" style="shape=partialRectangle;overflow=hidden;connectable=0;fillColor=none;top=0;left=0;bottom=0;right=0;" parent="0EHANF2xvQlgQ6-XzLyw-34" vertex="1">
          <mxGeometry width="30" height="30" as="geometry">
            <mxRectangle width="30" height="30" as="alternateBounds" />
          </mxGeometry>
        </mxCell>
        <mxCell id="0EHANF2xvQlgQ6-XzLyw-36" value="IsEnabled bool NOT NULL" style="shape=partialRectangle;overflow=hidden;connectable=0;fillColor=none;top=0;left=0;bottom=0;right=0;align=left;spacingLeft=6;" parent="0EHANF2xvQlgQ6-XzLyw-34" vertex="1">
          <mxGeometry x="30" width="260" height="30" as="geometry">
            <mxRectangle width="260" height="30" as="alternateBounds" />
          </mxGeometry>
        </mxCell>
      </root>
    </mxGraphModel>
  </diagram>
</mxfile>
